<svg width="12" height="10" viewBox="0 0 12 10" fill="none" xmlns="http://www.w3.org/2000/svg">
<path d="M5.99991 3.12497H4.49988V0.874935C4.49988 0.719683 4.40463 0.580931 4.25988 0.52543C4.11663 0.468429 3.95162 0.507429 3.84737 0.622931L0.097314 4.748C-0.032438 4.89125 -0.032438 5.1095 0.097314 5.25275L3.84737 9.37782C3.92012 9.45657 4.02138 9.50007 4.12488 9.50007C4.17063 9.50007 4.21638 9.49182 4.25988 9.47532C4.40463 9.41907 4.49988 9.28032 4.49988 9.12506V6.87503H5.2874C7.58093 6.87503 9.73722 7.76829 11.3595 9.39057C11.4675 9.49857 11.6295 9.53007 11.7682 9.47157C11.9085 9.41382 12 9.27657 12 9.12506C12 5.81676 9.30821 3.12497 5.99991 3.12497Z" fill="#95ABC6"/>
</svg>
