<svg width="18" height="18" viewBox="0 0 18 18" fill="none" xmlns="http://www.w3.org/2000/svg">
<path d="M9 0C4.03734 0 0 4.03734 0 9C0 13.9627 4.03734 18 9 18C13.9627 18 18 13.9627 18 9C18 4.03734 13.9627 0 9 0ZM9 16.7143C4.74637 16.7143 1.28568 13.2536 1.28568 9C1.28568 4.74637 4.74637 1.28568 9 1.28568C13.2536 1.28568 16.7143 4.74637 16.7143 9C16.7143 13.2536 13.2536 16.7143 9 16.7143Z" fill="#95ABC6"/>
<path d="M12.214 5.14294C12.0495 5.14294 11.885 5.2057 11.7595 5.33135L5.33096 11.7599C5.07978 12.011 5.07978 12.4178 5.33096 12.6688C5.582 12.9199 5.9889 12.92 6.23994 12.6688L12.6685 6.24034C12.9196 5.98916 12.9196 5.58239 12.6685 5.33135C12.5429 5.2057 12.3786 5.14294 12.214 5.14294Z" fill="#95ABC6"/>
<path d="M5.78538 5.14289C5.62086 5.14289 5.45648 5.20565 5.33096 5.3313C5.07978 5.58234 5.07978 5.98925 5.33096 6.24028L11.7595 12.6688C12.0106 12.92 12.4174 12.92 12.6685 12.6688C12.9195 12.4178 12.9196 12.0109 12.6685 11.7598L6.23994 5.3313C6.11442 5.20565 5.9499 5.14289 5.78538 5.14289Z" fill="#95ABC6"/>
</svg>
