<svg width="18" height="18" viewBox="0 0 18 18" fill="none" xmlns="http://www.w3.org/2000/svg">
<path d="M11.0424 1H4.61612C3.67727 1 2.91318 1.76413 2.91318 2.70291V15.2971C2.91318 16.2358 3.67727 17 4.61612 17H13.3844C14.3227 17 15.0868 16.2359 15.0868 15.2971V5.03033L11.0424 1ZM13.3844 15.9566H4.61612C4.25261 15.9566 3.95656 15.6611 3.95656 15.2971V2.70291C3.95656 2.33943 4.25261 2.04391 4.61612 2.04391L5.43673 2.04318V2.79755C5.43673 2.9448 5.55599 3.06406 5.70321 3.06406H6.70866V4.17962H5.70321C5.55599 4.17962 5.43673 4.29889 5.43673 4.4461V5.02877C5.43673 5.17602 5.55599 5.29518 5.70321 5.29518H6.70866V6.41078H5.70321C5.55599 6.41078 5.43673 6.53005 5.43673 6.67726V7.25992C5.43673 7.40717 5.55599 7.52634 5.70321 7.52634H6.70866V8.37548C6.70866 8.52273 6.82792 8.64193 6.97517 8.64193H8.44535C8.59229 8.64193 8.71156 8.52269 8.71156 8.37548V7.79285C8.71156 7.64564 8.59229 7.52634 8.44535 7.52634H7.43963V6.41078H8.44538C8.59232 6.41078 8.71159 6.29154 8.71159 6.14433V5.5617C8.71159 5.41449 8.59232 5.29518 8.44538 5.29518H7.43963V4.17962H8.44538C8.59232 4.17962 8.71159 4.06039 8.71159 3.91318V3.33058C8.71159 3.18333 8.59232 3.0641 8.44538 3.0641H7.43963V2.04103L10.6522 2.03767V4.2683C10.6522 4.92049 11.181 5.44983 11.8332 5.44983L14.0188 5.44359L14.0434 15.2971C14.0434 15.6611 13.7479 15.9566 13.3844 15.9566Z" fill="url(#paint0_linear)"/>
<path d="M7.70996 11.0144V9.65095C7.70996 9.50397 7.59076 9.38477 7.44378 9.38477H6.70425C6.55727 9.38477 6.43803 9.504 6.43803 9.65095V11.0142L6.0267 12.2226C5.91161 12.5594 5.96683 12.9336 6.17421 13.2236C6.38158 13.5131 6.71785 13.686 7.074 13.686C7.43021 13.686 7.76651 13.5131 7.97389 13.2236C8.18126 12.9336 8.23641 12.5594 8.12136 12.2229L7.70996 11.0144ZM7.53816 12.9119C7.32478 13.2106 6.82322 13.2106 6.6098 12.9119C6.50284 12.7623 6.47437 12.5694 6.53347 12.3955L6.67152 11.9902H7.47644L7.61452 12.3957C7.67366 12.5694 7.64508 12.7623 7.53816 12.9119Z" fill="url(#paint1_linear)"/>
<defs>
<linearGradient id="paint0_linear" x1="15.0868" y1="17" x2="-7.0681" y2="14.2196" gradientUnits="userSpaceOnUse">
<stop stop-color="#008AE4"/>
<stop offset="1" stop-color="#A6DCFF"/>
</linearGradient>
<linearGradient id="paint1_linear" x1="8.1804" y1="13.686" x2="4.11922" y2="13.3414" gradientUnits="userSpaceOnUse">
<stop stop-color="#008AE4"/>
<stop offset="1" stop-color="#A6DCFF"/>
</linearGradient>
</defs>
</svg>
