<svg width="30" height="26" viewBox="0 0 30 26" fill="none" xmlns="http://www.w3.org/2000/svg">
<path d="M29.121 24.0386H27.7808V7.08849C27.7808 5.96278 26.8649 5.04696 25.7392 5.04696H22.3256C21.1999 5.04696 20.2841 5.96278 20.2841 7.08849V24.0386H18.7483V2.24489C18.7483 1.11919 17.8325 0.203369 16.7068 0.203369H13.2932C12.1675 0.203369 11.2516 1.11919 11.2516 2.24489V24.0385H9.73928V11.7917C9.73928 10.666 8.82346 9.75017 7.69775 9.75017H4.28408C3.15838 9.75017 2.24256 10.666 2.24256 11.7917V24.0385H0.879023C0.393574 24.0385 0 24.4321 0 24.9176C0 25.403 0.393574 25.7966 0.879023 25.7966H29.121C29.6065 25.7966 30.0001 25.403 30.0001 24.9176C30.0001 24.4321 29.6064 24.0386 29.121 24.0386ZM7.98123 24.0386H4.00061V11.7917C4.00061 11.6354 4.12775 11.5082 4.28414 11.5082H7.69781C7.85414 11.5082 7.98135 11.6354 7.98135 11.7917V24.0386H7.98123ZM16.9903 24.0385H13.0096V2.24489C13.0096 2.08856 13.1367 1.96136 13.2931 1.96136H16.7067C16.863 1.96136 16.9903 2.08851 16.9903 2.24489V24.0385ZM26.0228 24.0386H22.0421V7.08849C22.0421 6.93216 22.1692 6.80495 22.3256 6.80495H25.7393C25.8956 6.80495 26.0228 6.9321 26.0228 7.08849V24.0386H26.0228Z" fill="#008AE4"/>
</svg>
