<svg width="12" height="12" viewBox="0 0 12 12" fill="none" xmlns="http://www.w3.org/2000/svg">
<g clip-path="url(#clip0)">
<path d="M7.41065 2.01562L0.808079 8.61867C0.774861 8.65198 0.750876 8.69405 0.739454 8.73926L0.00762279 11.6767C-0.0142684 11.7651 0.0117155 11.8591 0.0762469 11.9237C0.125074 11.9725 0.191604 11.9995 0.259657 11.9995C0.280501 11.9995 0.301821 11.997 0.32257 11.9917L3.25999 11.2598C3.30577 11.2484 3.34736 11.2245 3.38058 11.1913L9.98372 4.5887L7.41065 2.01562Z" fill="white"/>
<path d="M11.6193 1.11517L10.8843 0.380199C10.3931 -0.11102 9.53694 -0.110544 9.04629 0.380199L8.146 1.2805L10.719 3.85347L11.6193 2.95317C11.8646 2.7079 11.9998 2.38143 11.9998 2.03422C11.9998 1.68701 11.8646 1.36054 11.6193 1.11517Z" fill="white"/>
</g>
<defs>
<clipPath id="clip0">
<rect width="12" height="12" fill="white"/>
</clipPath>
</defs>
</svg>
