<svg width="30" height="30" viewBox="0 0 30 30" fill="none" xmlns="http://www.w3.org/2000/svg">
<path d="M8.83705 19.3012C8.83705 18.803 8.49134 18.5059 7.88136 18.5059C7.63229 18.5059 7.4636 18.5304 7.37537 18.554V20.1525C7.47984 20.176 7.60827 20.1838 7.78529 20.1838C8.43546 20.1838 8.83705 19.8553 8.83705 19.3012Z" fill="#FF6231"/>
<path d="M12.6131 18.5225C12.3399 18.5225 12.1634 18.546 12.059 18.5705V22.1107C12.1634 22.1352 12.3321 22.1352 12.4846 22.1352C13.5927 22.143 14.3155 21.5331 14.3155 20.2406C14.3233 19.1167 13.6647 18.5225 12.6131 18.5225Z" fill="#FF6231"/>
<path d="M19.6286 0H7.57941C5.81914 0 4.38646 1.43367 4.38646 3.19295V14.9999H4.0746C3.36415 14.9999 2.78796 15.5756 2.78796 16.2866V24.0896C2.78796 24.8006 3.36408 25.3762 4.0746 25.3762H4.38646V26.807C4.38646 28.5682 5.81914 29.9999 7.57941 29.9999H24.0201C25.7792 29.9999 27.2121 28.5681 27.2121 26.807V7.55687L19.6286 0ZM6.16335 17.6948C6.54042 17.6311 7.07043 17.583 7.81717 17.583C8.5718 17.583 9.10965 17.7271 9.47104 18.0164C9.81625 18.2891 10.0492 18.7391 10.0492 19.2688C10.0492 19.7983 9.87269 20.2485 9.5515 20.5534C9.13373 20.9467 8.51593 21.1232 7.79321 21.1232C7.63237 21.1232 7.4882 21.1152 7.37545 21.0996V23.0345H6.16335V17.6948ZM24.0201 28.0445H7.57941C6.89783 28.0445 6.3428 27.4895 6.3428 26.807V25.3762H21.6688C22.3794 25.3762 22.9555 24.8006 22.9555 24.0896V16.2866C22.9555 15.5756 22.3794 14.9999 21.6688 14.9999H6.3428V3.19295C6.3428 2.51236 6.89789 1.95734 7.57941 1.95734L18.8971 1.94551V6.12892C18.8971 7.35085 19.8885 8.34324 21.1114 8.34324L25.2095 8.33148L25.2556 26.8069C25.2556 27.4895 24.7016 28.0445 24.0201 28.0445ZM10.8308 23.01V17.6948C11.2804 17.6232 11.8663 17.583 12.4847 17.583C13.5123 17.583 14.1787 17.7674 14.7009 18.1606C15.2628 18.5784 15.6158 19.2443 15.6158 20.2003C15.6158 21.2359 15.2388 21.9508 14.7165 22.392C14.1468 22.8657 13.2794 23.0903 12.2199 23.0903C11.5853 23.0903 11.1357 23.0501 10.8308 23.01ZM19.5934 19.8631V20.8584H17.6502V23.0345H16.4219V17.6232H19.7297V18.6264H17.6502V19.8631H19.5934Z" fill="#FF6231"/>
</svg>
