<svg width="18" height="20" viewBox="0 0 18 20" fill="none" xmlns="http://www.w3.org/2000/svg">
<path d="M7.21004 4.2099L8.00004 3.4099V7.9999C8.00004 8.26511 8.1054 8.51947 8.29294 8.707C8.48047 8.89454 8.73483 8.9999 9.00004 8.9999C9.26526 8.9999 9.51961 8.89454 9.70715 8.707C9.89469 8.51947 10 8.26511 10 7.9999V3.4099L10.79 4.2099C10.883 4.30363 10.9936 4.37802 11.1155 4.42879C11.2373 4.47956 11.368 4.50569 11.5 4.50569C11.6321 4.50569 11.7628 4.47956 11.8846 4.42879C12.0065 4.37802 12.1171 4.30363 12.21 4.2099C12.3038 4.11693 12.3782 4.00633 12.4289 3.88447C12.4797 3.76261 12.5058 3.63191 12.5058 3.4999C12.5058 3.36788 12.4797 3.23718 12.4289 3.11532C12.3782 2.99346 12.3038 2.88286 12.21 2.7899L9.71004 0.289896C9.61494 0.198856 9.50279 0.127491 9.38004 0.0798963C9.13658 -0.0201217 8.8635 -0.0201217 8.62004 0.0798963C8.49729 0.127491 8.38515 0.198856 8.29004 0.289896L5.79004 2.7899C5.60174 2.9782 5.49595 3.23359 5.49595 3.4999C5.49595 3.7662 5.60174 4.02159 5.79004 4.2099C5.97835 4.3982 6.23374 4.50399 6.50004 4.50399C6.76634 4.50399 7.02174 4.3982 7.21004 4.2099ZM15 5.5599C14.9055 5.46534 14.7932 5.39034 14.6697 5.33917C14.5462 5.288 14.4138 5.26166 14.28 5.26166C14.1463 5.26166 14.0139 5.288 13.8904 5.33917C13.7668 5.39034 13.6546 5.46534 13.56 5.5599C13.4655 5.65445 13.3905 5.7667 13.3393 5.89024C13.2881 6.01377 13.2618 6.14618 13.2618 6.2799C13.2618 6.41361 13.2881 6.54602 13.3393 6.66956C13.3905 6.7931 13.4655 6.90534 13.56 6.9999C14.4623 7.90185 15.0769 9.05113 15.3259 10.3024C15.575 11.5536 15.4474 12.8506 14.9593 14.0293C14.4712 15.2081 13.6445 16.2155 12.5837 16.9244C11.523 17.6332 10.2758 18.0116 9.00004 18.0116C7.72425 18.0116 6.47712 17.6332 5.41637 16.9244C4.35562 16.2155 3.52891 15.2081 3.04079 14.0293C2.55268 12.8506 2.42508 11.5536 2.67415 10.3024C2.92322 9.05113 3.53776 7.90185 4.44004 6.9999C4.53459 6.90534 4.6096 6.7931 4.66077 6.66956C4.71194 6.54602 4.73828 6.41361 4.73828 6.2799C4.73828 6.14618 4.71194 6.01377 4.66077 5.89024C4.6096 5.7667 4.53459 5.65445 4.44004 5.5599C4.34549 5.46534 4.23324 5.39034 4.1097 5.33917C3.98617 5.288 3.85376 5.26166 3.72004 5.26166C3.58633 5.26166 3.45392 5.288 3.33038 5.33917C3.20684 5.39034 3.09459 5.46534 3.00004 5.5599C1.82196 6.74506 1.02125 8.25256 0.698916 9.89225C0.376585 11.5319 0.547074 13.2304 1.18888 14.7733C1.83068 16.3162 2.91504 17.6345 4.30518 18.5618C5.69532 19.4892 7.32897 19.9841 9.00004 19.9841C10.6711 19.9841 12.3048 19.4892 13.6949 18.5618C15.085 17.6345 16.1694 16.3162 16.8112 14.7733C17.453 13.2304 17.6235 11.5319 17.3012 9.89225C16.9788 8.25256 16.1781 6.74506 15 5.5599Z" fill="#FF5454"/>
</svg>
