<svg width="20" height="20" viewBox="0 0 20 20" fill="none" xmlns="http://www.w3.org/2000/svg">
<path d="M18.1508 4.22781C18.1505 4.22137 18.1498 4.21492 18.1487 4.20851C18.1237 4.1728 18.093 4.14207 18.0672 4.10708C17.8805 3.85271 17.6828 3.60788 17.4742 3.37256C17.4171 3.30826 17.3599 3.24466 17.3013 3.18178C17.0865 2.95174 16.8612 2.73237 16.6254 2.52375C16.5818 2.48516 16.5411 2.44517 16.4975 2.40729C15.9164 1.90947 15.2802 1.47986 14.6013 1.12694C14.5741 1.11266 14.5455 1.10052 14.5177 1.08621C14.2153 0.932563 13.9053 0.794451 13.5888 0.6725C13.5173 0.646795 13.4523 0.622471 13.3845 0.601037C13.103 0.499599 12.8172 0.410762 12.5271 0.334526C12.4413 0.311668 12.3556 0.288099 12.2684 0.268087C11.9826 0.201648 11.6969 0.150908 11.4046 0.109462C11.316 0.0966096 11.2289 0.0794451 11.1395 0.0687278C10.3868 -0.0227465 9.62586 -0.0227465 8.87313 0.0687278C8.78383 0.0794451 8.69667 0.0966096 8.60804 0.109462C8.31583 0.150908 8.02717 0.201648 7.74421 0.268087C7.65705 0.288099 7.57131 0.311668 7.48557 0.334526C7.19356 0.41072 6.9078 0.499557 6.62818 0.601037C6.55672 0.625318 6.4917 0.649642 6.42384 0.6725C6.10739 0.794451 5.79734 0.932521 5.49499 1.08621C5.46711 1.10048 5.43856 1.11262 5.41139 1.12694C4.73021 1.47948 4.09181 1.90906 3.50868 2.40729C3.4651 2.44513 3.42436 2.48516 3.38078 2.52375C3.14262 2.73333 2.9173 2.9527 2.70488 3.18178C2.64631 3.24466 2.58912 3.30826 2.53198 3.37256C2.32286 3.60738 2.12518 3.8522 1.93896 4.10703C1.91326 4.14203 1.88253 4.17276 1.8575 4.20847C1.85423 4.21471 1.85134 4.22116 1.84891 4.22777C-0.615491 7.68148 -0.615491 12.3188 1.84891 15.7725C1.85134 15.7791 1.85419 15.7856 1.8575 15.7918C1.88249 15.8275 1.91322 15.8582 1.93896 15.8932C2.12522 16.1476 2.32286 16.3924 2.53198 16.6277C2.58912 16.692 2.64631 16.7556 2.70488 16.8185C2.92019 17.0486 3.14546 17.2679 3.38078 17.4766C3.42436 17.5152 3.4651 17.5551 3.50868 17.593C4.08976 18.0908 4.72602 18.5204 5.40494 18.8734C5.43211 18.8876 5.46066 18.8998 5.48854 18.9141C5.79089 19.0677 6.1009 19.2059 6.41739 19.3278C6.48886 19.3535 6.55387 19.3778 6.62174 19.3993C6.90323 19.5007 7.18904 19.5895 7.47912 19.6658C7.56486 19.6886 7.6506 19.7122 7.73776 19.7322C8.02357 19.7987 8.30934 19.8494 8.6016 19.8908C8.69018 19.9037 8.77735 19.9209 8.86668 19.9316C9.61937 20.0231 10.3803 20.0231 11.1331 19.9316C11.2224 19.9209 11.3095 19.9037 11.3982 19.8908C11.6904 19.8494 11.979 19.7987 12.262 19.7322C12.3492 19.7122 12.4349 19.6886 12.5206 19.6658C12.8131 19.5896 13.0989 19.5007 13.378 19.3993C13.4495 19.375 13.5145 19.3507 13.5824 19.3278C13.8988 19.2059 14.2089 19.0678 14.5112 18.9141C14.5391 18.8998 14.5676 18.8877 14.5948 18.8734C15.2737 18.5204 15.91 18.0908 16.4911 17.593C16.5347 17.5551 16.5754 17.5152 16.619 17.4766C16.8571 17.2674 17.0825 17.0481 17.2949 16.8185C17.3534 16.7556 17.4106 16.692 17.4678 16.6277C17.6769 16.3924 17.8746 16.1476 18.0608 15.8932C18.0865 15.8582 18.1172 15.8275 18.1423 15.7918C18.1455 15.7856 18.1484 15.7791 18.1508 15.7725C20.6152 12.3189 20.6152 7.68152 18.1508 4.22781ZM17.3356 5.57966C18.0189 6.70503 18.4315 7.97369 18.5409 9.28573H14.2612C14.2087 8.43437 14.0748 7.59005 13.8611 6.76431C15.07 6.5379 16.2401 6.13893 17.3356 5.57966ZM11.8212 1.6235C11.8612 1.63279 11.8997 1.64564 11.9398 1.65494C12.1956 1.71497 12.4492 1.78355 12.6971 1.86928C12.735 1.88214 12.7722 1.89717 12.8093 1.91073C13.0551 1.99647 13.2973 2.0915 13.5346 2.19654C13.576 2.21584 13.6167 2.23727 13.6582 2.25657C13.8854 2.36471 14.1073 2.48164 14.3241 2.6074L14.467 2.69385C14.6727 2.81961 14.8728 2.95416 15.0671 3.09755C15.1172 3.13397 15.1671 3.16901 15.2165 3.209C15.407 3.35188 15.5894 3.50502 15.7638 3.66842C15.8095 3.70986 15.8567 3.7506 15.9017 3.79347C16.0846 3.96708 16.2589 4.1507 16.4275 4.34076C16.449 4.36576 16.4718 4.38862 16.4932 4.41223C15.5258 4.87328 14.5009 5.20251 13.446 5.39106C12.9572 4.04754 12.3116 2.7664 11.5226 1.57426C11.6218 1.5921 11.7233 1.6021 11.8212 1.6235ZM7.17125 9.28569C7.2276 8.51262 7.35922 7.74687 7.56423 6.99934C8.37377 7.0955 9.18829 7.14318 10.0035 7.14222C10.8195 7.14197 11.6348 7.09307 12.4449 6.99574C12.6496 7.74449 12.7805 8.51145 12.8357 9.28569H7.17125ZM12.8357 10.7147C12.7794 11.4878 12.6478 12.2535 12.4428 13.0011C11.6332 12.9049 10.8187 12.8572 10.0035 12.8582C9.18754 12.8572 8.3723 12.9049 7.56206 13.0011C7.35763 12.2535 7.22676 11.4877 7.17121 10.7147H12.8357ZM10.0035 1.89218C10.8166 3.04459 11.4853 4.29237 11.9948 5.60755C11.3334 5.6778 10.6687 5.71309 10.0035 5.7133C9.33904 5.7125 8.67507 5.677 8.01432 5.60683C8.5244 4.29254 9.19235 3.04518 10.0035 1.89218ZM3.58023 4.34001C3.74815 4.14994 3.92318 3.96633 4.10609 3.79271C4.15109 3.74984 4.19827 3.70911 4.24399 3.66766C4.42024 3.50715 4.60269 3.35401 4.79129 3.20824C4.8406 3.17035 4.89059 3.13678 4.94062 3.0968C5.13495 2.95391 5.33503 2.81932 5.54079 2.6931L5.68367 2.60665C5.90041 2.47996 6.12237 2.36299 6.34957 2.25582C6.39102 2.23652 6.43175 2.21509 6.4732 2.19579C6.7104 2.08861 6.95263 1.99358 7.19842 1.90998C7.23555 1.89641 7.26988 1.88138 7.31058 1.86853C7.5585 1.78564 7.81073 1.71706 8.06795 1.65418C8.10797 1.64489 8.14653 1.63204 8.18726 1.62346C8.28514 1.60202 8.38662 1.59201 8.48593 1.57414C7.69653 2.76649 7.05072 4.04788 6.56179 5.39165C5.50684 5.20309 4.48191 4.87387 3.5145 4.41281C3.53593 4.38786 3.55879 4.365 3.58023 4.34001ZM2.67139 5.57966C3.76661 6.13889 4.93652 6.53786 6.14523 6.76431C5.93176 7.59009 5.79801 8.43441 5.74584 9.28573H1.46606C1.5755 7.97369 1.98811 6.70503 2.67139 5.57966ZM2.67139 14.4208C1.98807 13.2954 1.57545 12.0267 1.46606 10.7147H5.74584C5.79826 11.5661 5.93222 12.4104 6.14594 13.2361C4.93702 13.4625 3.76686 13.8615 2.67139 14.4208ZM8.18584 18.3769C8.14582 18.3676 8.10726 18.3547 8.06724 18.3455C7.81144 18.2854 7.55779 18.2168 7.30986 18.1311C7.27198 18.1183 7.23484 18.1032 7.19767 18.0897C6.95188 18.0039 6.70969 17.9089 6.47245 17.8038C6.431 17.7845 6.39027 17.7631 6.34882 17.7438C6.12162 17.6357 5.89965 17.5188 5.68292 17.393L5.54004 17.3065C5.33427 17.1808 5.1342 17.0462 4.93986 16.9028C4.88984 16.8664 4.83985 16.8314 4.79053 16.7914C4.60001 16.6485 4.41756 16.4954 4.24324 16.332C4.19752 16.2905 4.15034 16.2498 4.10533 16.2069C3.92243 16.0333 3.7481 15.8497 3.57947 15.6596C3.55804 15.6346 3.53518 15.6118 3.51375 15.5882C4.48119 15.1271 5.50608 14.7979 6.56103 14.6093C7.04976 15.9528 7.69535 17.234 8.48442 18.4261C8.38516 18.4083 8.28372 18.3983 8.18584 18.3769ZM10.0035 18.1082C9.19038 16.9558 8.52164 15.7081 8.01219 14.3929C9.3354 14.2505 10.6701 14.2505 11.9933 14.3929L11.9926 14.3936C11.4826 15.7079 10.8146 16.9552 10.0035 18.1082ZM16.4268 15.6604C16.2589 15.8504 16.0838 16.0341 15.9009 16.2077C15.8559 16.2505 15.8087 16.2913 15.763 16.3327C15.5868 16.4937 15.4043 16.6469 15.2157 16.7921C15.1664 16.83 15.1164 16.8672 15.0664 16.9036C14.872 17.0465 14.672 17.1811 14.4662 17.3073L14.3233 17.3937C14.107 17.52 13.8851 17.6369 13.6574 17.7446C13.616 17.7639 13.5752 17.7853 13.5338 17.8046C13.2966 17.9118 13.0544 18.0068 12.8086 18.0904C12.7714 18.104 12.7371 18.119 12.6964 18.1319C12.4485 18.2148 12.1963 18.2833 11.939 18.3462C11.899 18.3555 11.8605 18.3684 11.8197 18.3769C11.7219 18.3984 11.6204 18.4084 11.5211 18.4263C12.3101 17.2341 12.9558 15.953 13.4445 14.6094C14.4994 14.798 15.5243 15.1272 16.4917 15.5883C16.4711 15.6125 16.4482 15.6354 16.4268 15.6604ZM17.3356 14.4208C16.2404 13.8615 15.0705 13.4626 13.8618 13.2361C14.0752 12.4103 14.209 11.566 14.2612 10.7147H18.5409C18.4315 12.0267 18.0189 13.2954 17.3356 14.4208Z" fill="#95ABC6"/>
</svg>
