<svg width="28" height="30" viewBox="0 0 28 30" fill="none" xmlns="http://www.w3.org/2000/svg">
<path d="M24.828 6.21754H24.5986C24.6057 6.21048 26.0714 4.75042 26.078 4.74289C27.1328 3.64554 27.1205 1.90307 26.0386 0.821187C24.9274 -0.28999 23.1533 -0.248813 22.1028 0.795304L16.6994 6.21754H3.172C1.75324 6.21754 0.599121 7.37166 0.599121 8.79042V21.2342C0.599121 22.6531 1.75324 23.8071 3.172 23.8071H10.8848L10.5495 28.2353H9.053C8.56595 28.2353 8.17065 28.6306 8.17065 29.1177C8.17065 29.6047 8.56595 30 9.053 30H18.9469C19.4339 30 19.8292 29.6047 19.8292 29.1177C19.8292 28.6306 19.4339 28.2353 18.9469 28.2353H17.4504L17.1151 23.8071H24.8279C26.2467 23.8071 27.4008 22.6531 27.4008 21.2342V8.79048C27.4009 7.37166 26.2468 6.21754 24.828 6.21754ZM25.6362 21.2343C25.6362 21.6802 25.2739 22.0425 24.828 22.0425C23.3552 22.0425 3.80842 22.0425 3.17194 22.0425C2.72606 22.0425 2.36371 21.6801 2.36371 21.2343V8.79048C2.36371 8.3446 2.72606 7.98225 3.17194 7.98225H14.9406L12.9095 10.0204C11.6114 9.88048 10.2817 10.3052 9.29365 11.294C7.92236 12.6641 7.24118 16.9925 7.039 18.8479C6.97806 19.4102 7.45506 19.8821 8.01195 19.8202C9.92118 19.6125 14.2024 18.9341 15.5659 17.5661C16.5442 16.5877 16.9809 15.2632 16.8394 13.9503L22.8281 7.98219H24.8281C25.2739 7.98219 25.6363 8.34454 25.6363 8.79042V21.2343H25.6362ZM15.6805 28.2354H12.3194L12.6547 23.8072H15.3452L15.6805 28.2354ZM23.3451 2.04883C23.7498 1.66648 24.3963 1.67472 24.7904 2.06883C25.1851 2.46354 25.1933 3.10995 24.8109 3.51472C19.0772 9.22848 24.8859 3.44007 16.2017 12.0945C15.8505 11.5288 15.3562 11.0238 14.7653 10.6581C18.9031 6.50566 15.1642 10.2575 23.3451 2.04883ZM8.93953 17.9202C9.11447 16.7556 9.71848 13.364 10.5412 12.5415C11.5813 11.5002 13.2727 11.496 14.3182 12.5415C15.3615 13.5847 15.3568 15.28 14.3182 16.3185C13.4921 17.1447 10.0958 17.7472 8.93953 17.9202Z" fill="#008AE4"/>
</svg>
