<svg width="24" height="22" viewBox="0 0 24 22" fill="none" xmlns="http://www.w3.org/2000/svg">
<path d="M20.4578 3.59133C19.9691 3.08683 19.3889 2.68663 18.7503 2.41358C18.1117 2.14054 17.4272 2 16.7359 2C16.0446 2 15.3601 2.14054 14.7215 2.41358C14.0829 2.68663 13.5026 3.08683 13.0139 3.59133L11.9997 4.63785L10.9855 3.59133C9.99842 2.57276 8.6596 2.00053 7.26361 2.00053C5.86761 2.00053 4.52879 2.57276 3.54168 3.59133C2.55456 4.6099 2 5.99139 2 7.43187C2 8.87235 2.55456 10.2538 3.54168 11.2724L4.55588 12.3189L11.9997 20L19.4436 12.3189L20.4578 11.2724C20.9467 10.7681 21.3346 10.1694 21.5992 9.51045C21.8638 8.85148 22 8.14517 22 7.43187C22 6.71857 21.8638 6.01225 21.5992 5.35328C21.3346 4.69431 20.9467 4.09559 20.4578 3.59133V3.59133Z" stroke="#95ABC6" stroke-width="2.1" stroke-linecap="round" stroke-linejoin="round"/>
</svg>
