<svg width="20" height="18" viewBox="0 0 20 18" fill="none" xmlns="http://www.w3.org/2000/svg">
<path d="M17 0H3C2.20435 0 1.44129 0.355579 0.87868 0.988515C0.316071 1.62145 0 2.47989 0 3.375V14.625C0 15.5201 0.316071 16.3786 0.87868 17.0115C1.44129 17.6444 2.20435 18 3 18H17C17.7956 18 18.5587 17.6444 19.1213 17.0115C19.6839 16.3786 20 15.5201 20 14.625V3.375C20 2.47989 19.6839 1.62145 19.1213 0.988515C18.5587 0.355579 17.7956 0 17 0ZM3 15.75C2.73478 15.75 2.48043 15.6315 2.29289 15.4205C2.10536 15.2095 2 14.9234 2 14.625V11.9025L5.3 8.20125C5.48693 7.99512 5.73825 7.87966 6 7.87966C6.26175 7.87966 6.51307 7.99512 6.7 8.20125L13.41 15.75H3ZM18 14.625C18 14.9234 17.8946 15.2095 17.7071 15.4205C17.5196 15.6315 17.2652 15.75 17 15.75H16.23L12.42 11.4412L13.3 10.4513C13.4869 10.2451 13.7382 10.1297 14 10.1297C14.2618 10.1297 14.5131 10.2451 14.7 10.4513L18 14.1525V14.625ZM18 10.98L16.12 8.87625C15.5501 8.26024 14.7904 7.91621 14 7.91621C13.2096 7.91621 12.4499 8.26024 11.88 8.87625L11 9.86625L8.12 6.62625C7.55006 6.01024 6.79036 5.66621 6 5.66621C5.20964 5.6662 4.44994 6.01024 3.88 6.62625L2 8.73V3.375C2 3.07663 2.10536 2.79048 2.29289 2.5795C2.48043 2.36853 2.73478 2.25 3 2.25H17C17.2652 2.25 17.5196 2.36853 17.7071 2.5795C17.8946 2.79048 18 3.07663 18 3.375V10.98Z" fill="#95ABC6"/>
</svg>
