<svg width="20" height="20" viewBox="0 0 20 20" fill="none" xmlns="http://www.w3.org/2000/svg">
<path d="M11 6.99999L11 13C11 13.2652 11.1054 13.5196 11.2929 13.7071C11.4804 13.8946 11.7348 14 12 14C12.2652 14 12.5196 13.8946 12.7071 13.7071C12.8946 13.5196 13 13.2652 13 13L13 6.99999C13 6.73478 12.8946 6.48042 12.7071 6.29289C12.5196 6.10535 12.2652 5.99999 12 5.99999C11.7348 5.99999 11.4804 6.10535 11.2929 6.29289C11.1054 6.48042 11 6.73478 11 6.99999ZM7 6.99999L7 13C7 13.2652 7.10536 13.5196 7.29289 13.7071C7.48043 13.8946 7.73478 14 8 14C8.26522 14 8.51957 13.8946 8.70711 13.7071C8.89464 13.5196 9 13.2652 9 13L9 6.99999C9 6.73478 8.89464 6.48042 8.70711 6.29289C8.51957 6.10535 8.26522 5.99999 8 5.99999C7.73478 5.99999 7.48043 6.10535 7.29289 6.29289C7.10536 6.48042 7 6.73478 7 6.99999ZM-4.37114e-07 10C-3.50661e-07 11.9778 0.58649 13.9112 1.6853 15.5557C2.78412 17.2002 4.3459 18.4819 6.17317 19.2388C8.00043 19.9957 10.0111 20.1937 11.9509 19.8078C13.8907 19.422 15.6725 18.4696 17.0711 17.0711C18.4696 15.6725 19.422 13.8907 19.8079 11.9509C20.1937 10.0111 19.9957 8.00042 19.2388 6.17316C18.4819 4.3459 17.2002 2.78411 15.5557 1.6853C13.9112 0.586486 11.9778 -4.33826e-06 10 -4.25181e-06C8.68678 -4.19441e-06 7.38642 0.258653 6.17316 0.7612C4.95991 1.26375 3.85752 2.00034 2.92893 2.92893C2.00035 3.85751 1.26375 4.9599 0.761204 6.17316C0.258657 7.38642 -4.94517e-07 8.68678 -4.37114e-07 10ZM18 9.99999C18 11.5822 17.5308 13.129 16.6518 14.4446C15.7727 15.7602 14.5233 16.7855 13.0615 17.391C11.5997 17.9965 9.99113 18.155 8.43928 17.8463C6.88743 17.5376 5.46197 16.7757 4.34315 15.6568C3.22433 14.538 2.4624 13.1126 2.15372 11.5607C1.84504 10.0089 2.00346 8.40034 2.60896 6.93853C3.21446 5.47672 4.23984 4.22729 5.55544 3.34824C6.87103 2.46919 8.41775 2 10 2C12.1217 2 14.1566 2.84285 15.6569 4.34314C17.1571 5.84343 18 7.87826 18 9.99999Z" fill="#00D06C"/>
</svg>
