<svg width="16" height="16" viewBox="0 0 16 16" fill="none" xmlns="http://www.w3.org/2000/svg">
<path d="M12.1641 10.5843C11.6414 10.0682 10.9888 10.0682 10.4694 10.5843C10.0732 10.9772 9.67698 11.3701 9.28744 11.7696C9.1809 11.8795 9.091 11.9028 8.96115 11.8295C8.70478 11.6897 8.43177 11.5765 8.18539 11.4233C7.03673 10.7008 6.07452 9.77193 5.22218 8.72648C4.79934 8.20709 4.42311 7.65107 4.16009 7.02514C4.10682 6.89862 4.11681 6.81538 4.22002 6.71217C4.61622 6.32928 5.00244 5.93641 5.39198 5.54353C5.93468 4.99751 5.93468 4.35825 5.38865 3.8089C5.07902 3.49593 4.76938 3.18962 4.45974 2.87665C4.14011 2.55702 3.82381 2.23407 3.50086 1.91777C2.97813 1.40837 2.32556 1.40837 1.80617 1.9211C1.40663 2.31398 1.02375 2.71684 0.617555 3.10305C0.241327 3.4593 0.0515486 3.89546 0.0115952 4.40487C-0.0516643 5.2339 0.151432 6.01632 0.437765 6.77876C1.02375 8.35691 1.91604 9.75861 2.99811 11.0438C4.45974 12.7817 6.20437 14.1568 8.24532 15.149C9.16425 15.5951 10.1165 15.9381 11.1519 15.9947C11.8644 16.0346 12.4837 15.8548 12.9798 15.2988C13.3194 14.9192 13.7023 14.573 14.0619 14.2101C14.5946 13.6707 14.5979 13.0181 14.0685 12.4854C13.4359 11.8495 12.8 11.2169 12.1641 10.5843Z" fill="white"/>
<path d="M11.5283 7.93077L12.7569 7.72101C12.5638 6.59233 12.0311 5.57019 11.222 4.7578C10.3663 3.90213 9.28426 3.36276 8.09232 3.19629L7.91919 4.43151C8.84145 4.56136 9.68047 4.97754 10.343 5.6401C10.969 6.26604 11.3785 7.05845 11.5283 7.93077Z" fill="white"/>
<path d="M13.4491 2.59031C12.0308 1.17197 10.2362 0.276344 8.25516 0L8.08203 1.23523C9.79337 1.47495 11.3449 2.25071 12.5701 3.47262C13.7321 4.63459 14.4945 6.10288 14.7709 7.71766L15.9995 7.50791C15.6765 5.63676 14.7942 3.93874 13.4491 2.59031Z" fill="white"/>
</svg>
