<svg width="20" height="20" viewBox="0 0 20 20" fill="none" xmlns="http://www.w3.org/2000/svg">
<g clip-path="url(#clip0)">
<path d="M19.7561 8.99492L12.2604 1.49926C11.7358 0.974607 10.8387 1.34619 10.8387 2.08818V5.42339C6.06837 5.62168 1.86077 8.86975 0.527326 13.4923C0.0820371 15.0353 -0.0290703 16.3051 0.00602648 17.6719C0.010438 17.8323 0.0115701 17.8786 0.0115701 17.9123C0.0115701 18.7586 1.12729 19.0655 1.56012 18.3383C2.48799 16.7793 3.54183 15.5746 4.69631 14.6842C6.78346 13.0745 8.95642 12.6083 10.8386 12.7965V17.0795C10.8386 17.8215 11.7357 18.1931 12.2604 17.6684L19.7561 10.1727C20.0813 9.84751 20.0813 9.32016 19.7561 8.99492ZM12.5044 15.0688V12.0824C12.5044 11.7008 12.2451 11.3681 11.8752 11.2748C11.7738 11.2492 11.6055 11.2157 11.3771 11.1838C9.01791 10.8537 6.27719 11.3614 3.67905 13.3652C3.03993 13.8581 2.4313 14.4309 1.85636 15.087L1.86909 15.0204C1.93549 14.6784 2.02052 14.3253 2.12769 13.954C3.31645 9.83302 7.2042 6.98893 11.5094 7.08173C11.5822 7.08302 11.6091 7.0836 11.6428 7.08477C12.1137 7.10101 12.5043 6.72365 12.5043 6.2524V4.09885L17.9893 9.58383L12.5044 15.0688Z" fill="white"/>
</g>
<defs>
<clipPath id="clip0">
<rect width="20" height="20" fill="white"/>
</clipPath>
</defs>
</svg>
