<svg width="14" height="12" viewBox="0 0 14 12" fill="none" xmlns="http://www.w3.org/2000/svg">
<path d="M6.52492 7.76654H8.56655V9.74984C8.56655 9.95853 8.69252 10.1476 8.88597 10.2273L8.88657 10.2275C9.07977 10.3056 9.30069 10.2627 9.44867 10.1158L9.44892 10.1155L13.6155 5.94895C13.8171 5.7474 13.8171 5.41993 13.6155 5.21838L9.44892 1.05096L9.44892 1.05095C9.30086 0.9029 9.0805 0.859948 8.88632 0.939057L8.88597 0.939199C8.69252 1.01886 8.56655 1.20797 8.56655 1.41666V3.39995H7.41657C3.45559 3.39995 0.233374 6.62217 0.233374 10.5832C0.233374 10.8133 0.385904 11.0157 0.606769 11.0791C0.655175 11.0937 0.703123 11.0998 0.750033 11.0998C0.924558 11.0998 1.092 11.011 1.18819 10.8569L1.31316 10.657L1.31319 10.6569C2.42573 8.87457 4.4228 7.76654 6.52492 7.76654ZM6.52492 6.73322C4.66241 6.73322 2.8707 7.47716 1.54765 8.74445C2.33069 6.24909 4.66581 4.43327 7.41657 4.43327H9.08321C9.36843 4.43327 9.59987 4.20184 9.59987 3.91661V2.6639L12.5192 5.58325L9.59987 8.5026V7.24988C9.59987 6.96466 9.36843 6.73322 9.08321 6.73322H6.52492Z" fill="#95ABC6" stroke="#95ABC6" stroke-width="0.2"/>
</svg>
