<svg width="28" height="30" viewBox="0 0 28 30" fill="none" xmlns="http://www.w3.org/2000/svg">
<path d="M25.0387 16.6093C24.5766 16.0753 24.0565 15.5369 23.4868 15C24.0565 14.4631 24.5766 13.9248 25.0387 13.3908C26.0017 12.278 26.6707 11.2341 27.0272 10.288C27.4393 9.19404 27.427 8.25605 26.9905 7.50002C26.554 6.74399 25.7479 6.26429 24.5945 6.07428C23.5968 5.90994 22.3582 5.96734 20.9131 6.24488C20.2196 6.37807 19.4933 6.55934 18.7435 6.78428C18.5795 6.09069 18.3937 5.4326 18.1871 4.81679C18.5081 4.51095 18.7087 4.07998 18.7087 3.60271C18.7087 2.67755 17.956 1.9249 17.0309 1.9249C16.9703 1.9249 16.9104 1.92829 16.8514 1.93461C16.7155 1.72838 16.5761 1.53683 16.4328 1.36221C15.6915 0.458304 14.873 0 14 0C13.127 0 12.3086 0.458304 11.5673 1.36221C10.9262 2.14397 10.3567 3.24535 9.87441 4.63565C9.64302 5.3028 9.43685 6.02244 9.25674 6.78428C8.5069 6.55934 7.78056 6.37801 7.0871 6.24488C5.6419 5.96734 4.4033 5.90994 3.40573 6.07428C2.25231 6.26429 1.44616 6.74399 1.00969 7.50002C0.573226 8.25605 0.560904 9.19404 0.973045 10.288C1.32951 11.2341 1.99851 12.278 2.96148 13.3908C3.42355 13.9248 3.94372 14.4631 4.51344 15C4.17172 15.322 3.84769 15.6446 3.54365 15.9664C3.38696 15.9179 3.22051 15.8916 3.04805 15.8916C2.12289 15.8916 1.37025 16.6443 1.37025 17.5694C1.37025 17.8847 1.45778 18.1799 1.60961 18.4321C1.34011 18.8754 1.12724 19.303 0.973045 19.7121C0.56084 20.806 0.573226 21.744 1.00969 22.5C1.44616 23.256 2.25231 23.7357 3.40573 23.9257C3.77593 23.9867 4.17926 24.0171 4.61406 24.0171C5.35094 24.0171 6.17822 23.9297 7.08704 23.7551C7.7805 23.6219 8.50684 23.4407 9.25667 23.2157C9.43679 23.9776 9.64295 24.6973 9.87434 25.3644C10.3566 26.7547 10.9262 27.856 11.5673 28.6379C12.3086 29.5418 13.127 30.0001 14 30.0001C14.873 30.0001 15.6915 29.5418 16.4328 28.6379C17.0739 27.8561 17.6435 26.7547 18.1258 25.3644C18.3572 24.6973 18.5633 23.9776 18.7435 23.2157C19.4039 23.4138 20.046 23.5781 20.6635 23.7053C20.8351 24.4494 21.5026 25.006 22.2981 25.006C22.9827 25.006 23.5726 24.5936 23.8331 24.0044C24.1 23.9905 24.3549 23.9652 24.5944 23.9257C25.7478 23.7357 26.554 23.256 26.9904 22.5C27.4269 21.744 27.4392 20.806 27.0271 19.7121C26.6707 18.7661 26.0017 17.7221 25.0387 16.6093ZM21.1539 7.49893C23.6125 7.02677 25.3809 7.26595 25.8846 8.1385C26.3883 9.01105 25.7112 10.6622 24.0731 12.5552C23.6176 13.0815 23.1021 13.6131 22.5345 14.1438C21.6159 13.3543 20.5965 12.5749 19.5001 11.8246C19.3984 10.4999 19.2332 9.22743 19.0088 8.03717C19.7522 7.81089 20.4704 7.6302 21.1539 7.49893ZM16.1716 18.7611C15.448 19.1789 14.7219 19.5692 14.0001 19.9297C13.2782 19.5692 12.5522 19.1789 11.8286 18.7611C11.105 18.3434 10.404 17.9097 9.73087 17.4648C9.68216 16.6595 9.65713 15.8356 9.65713 15C9.65713 14.1644 9.68216 13.3405 9.73087 12.5351C10.404 12.0902 11.105 11.6566 11.8286 11.2388C12.5522 10.821 13.2783 10.4307 14.0001 10.0702C14.722 10.4307 15.448 10.821 16.1716 11.2388C16.8952 11.6565 17.5962 12.0902 18.2693 12.5351C18.318 13.3405 18.3431 14.1644 18.3431 15C18.3431 15.8356 18.318 16.6595 18.2693 17.4648C17.5962 17.9098 16.8952 18.3434 16.1716 18.7611ZM18.1384 19.0673C18.049 19.9296 17.9311 20.7627 17.7861 21.5576C17.0252 21.2858 16.2447 20.9713 15.4533 20.6175C15.9058 20.3779 16.3585 20.1277 16.8101 19.8671C17.2616 19.6064 17.7046 19.3394 18.1384 19.0673ZM12.5468 20.6175C11.7554 20.9713 10.9749 21.2858 10.2141 21.5576C10.0691 20.7628 9.95109 19.9296 9.86176 19.0673C10.2956 19.3394 10.7386 19.6064 11.1901 19.8671C11.6416 20.1277 12.0944 20.3779 12.5468 20.6175ZM8.40851 16.5502C7.70643 16.0417 7.04388 15.523 6.42806 15C7.04388 14.477 7.7065 13.9582 8.40851 13.4497C8.3898 13.9615 8.3801 14.4786 8.3801 15C8.3801 15.5213 8.38987 16.0385 8.40851 16.5502ZM9.86176 10.9327C9.95109 10.0705 10.069 9.23727 10.2141 8.44242C10.9749 8.71422 11.7554 9.02868 12.5468 9.38246C12.0944 9.62215 11.6416 9.8723 11.1901 10.1329C10.7386 10.3936 10.2956 10.6607 9.86176 10.9327ZM15.4533 9.38246C16.2447 9.02868 17.0252 8.71422 17.7861 8.44242C17.9311 9.2372 18.049 10.0704 18.1384 10.9327C17.7045 10.6606 17.2615 10.3936 16.8101 10.1329C16.3586 9.8723 15.9058 9.62215 15.4533 9.38246ZM19.5916 13.4498C20.2937 13.9583 20.9563 14.477 21.5721 15C20.9563 15.523 20.2936 16.0418 19.5916 16.5503C19.6103 16.0385 19.62 15.5214 19.62 15C19.62 14.4787 19.6103 13.9615 19.5916 13.4498ZM11.0808 5.05411C11.9012 2.68898 12.9925 1.27697 14 1.27697C14.5699 1.27697 15.1667 1.72908 15.726 2.54959C15.4929 2.83774 15.353 3.2041 15.353 3.60271C15.353 4.51606 16.0867 5.26079 16.9956 5.27969C17.1928 5.87367 17.3698 6.50966 17.5257 7.1809C16.3827 7.58174 15.1981 8.07484 14 8.64916C12.802 8.07484 11.6173 7.58174 10.4744 7.1809C10.6502 6.42404 10.8528 5.71169 11.0808 5.05411ZM3.92705 12.5552C2.28896 10.6622 1.61178 9.01105 2.11555 8.1385C2.44896 7.56099 3.33633 7.26097 4.61119 7.26097C5.26244 7.26097 6.01496 7.33931 6.84627 7.49893C7.52976 7.6302 8.24793 7.81089 8.99132 8.03711C8.76695 9.22737 8.60172 10.4999 8.50007 11.8245C7.40366 12.5749 6.38432 13.3543 5.46567 14.1437C4.89813 13.6131 4.38249 13.0815 3.92705 12.5552ZM6.84633 22.5011C4.38791 22.9733 2.61938 22.7341 2.11561 21.8615C1.77575 21.2729 1.97412 20.3296 2.64153 19.1972C2.77178 19.2297 2.90784 19.2472 3.04805 19.2472C3.97322 19.2472 4.72586 18.4945 4.72586 17.5694C4.72586 17.2852 4.65461 17.0175 4.52946 16.7827C4.82304 16.4744 5.13532 16.1651 5.46574 15.8562C6.38432 16.6456 7.40373 17.4249 8.50007 18.1753C8.60172 19.5001 8.76695 20.7725 8.99132 21.9628C8.24799 22.1891 7.52983 22.3698 6.84633 22.5011ZM16.9193 24.9459C16.0989 27.311 15.0076 28.723 14.0001 28.723C12.9926 28.723 11.9013 27.311 11.0809 24.9459C10.8528 24.2883 10.6502 23.576 10.4745 22.8191C11.6174 22.4183 12.802 21.9252 14.0001 21.3508C15.1981 21.9252 16.3828 22.4183 17.5257 22.8191C17.35 23.576 17.1474 24.2883 16.9193 24.9459ZM25.8846 21.8615C25.5943 22.3644 24.8832 22.6564 23.8628 22.7236C23.6196 22.0964 23.0101 21.6503 22.298 21.6503C21.697 21.6503 21.1689 21.9682 20.8726 22.4445C20.2742 22.3195 19.6509 22.1583 19.0088 21.9628C19.2332 20.7726 19.3984 19.5001 19.5001 18.1754C20.5965 17.4251 21.6158 16.6457 22.5344 15.8562C23.102 16.3869 23.6176 16.9185 24.073 17.4448C25.7112 19.3379 26.3883 20.9889 25.8846 21.8615Z" fill="#008AE4"/>
</svg>
