<svg width="19" height="20" viewBox="0 0 19 20" fill="none" xmlns="http://www.w3.org/2000/svg">
<path fill-rule="evenodd" clip-rule="evenodd" d="M11.4577 13.8721C10.309 14.5871 8.95272 15.0001 7.5 15.0001C3.35787 15.0001 0 11.6423 0 7.50012C0 3.35799 3.35787 0.00012207 7.5 0.00012207C11.6421 0.00012207 15 3.35799 15 7.50012C15 9.46582 14.2438 11.2549 13.0064 12.5923L18.7071 18.293C19.0976 18.6835 19.0976 19.3167 18.7071 19.7072C18.3166 20.0978 17.6834 20.0978 17.2929 19.7072L11.4577 13.8721ZM13 7.50012C13 10.5377 10.5376 13.0001 7.5 13.0001C4.46243 13.0001 2 10.5377 2 7.50012C2 4.46256 4.46243 2.00012 7.5 2.00012C10.5376 2.00012 13 4.46256 13 7.50012Z" fill="#95ABC6"/>
</svg>
