<svg width="822" height="265" viewBox="0 0 822 265" fill="none" xmlns="http://www.w3.org/2000/svg">
<path fill-rule="evenodd" clip-rule="evenodd" d="M60.3652 5.45338L0.418945 71.1487L8.29675 87.5728C6.81957 88.7922 6.24257 90.749 7.02028 92.3705C7.4189 93.1333 8.05307 93.7478 8.82828 94.1226C9.60349 94.4973 10.4782 94.6122 11.3222 94.45L11.3702 94.8296L12.0179 99.7482L17.6036 97.0885L14.1526 93.5047L13.8863 93.2291C14.5432 92.6772 15.0028 91.927 15.1964 91.0907C15.39 90.2544 15.3072 89.377 14.9603 88.5897C14.1826 86.9683 12.29 86.1822 10.4119 86.5657L2.95716 71.0237L37.5092 69.0191L41.8571 78.0839C50.3528 64.3483 63.2058 52.6039 79.2916 44.9445C95.3773 37.2851 112.643 34.7399 128.698 36.7648L124.334 27.6664L149.345 0.277588L60.3652 5.45338Z" fill="white"/>
<path d="M74.571 245.92C90.5003 241.654 98.6315 233.234 102.766 226.145C106.568 219.628 106.99 214.236 106.99 214.236V143.791C106.965 141.98 107.659 140.233 108.92 138.933C110.18 137.632 111.905 136.884 113.717 136.852H113.995C114.907 136.839 115.813 137.006 116.66 137.344C117.508 137.682 118.281 138.183 118.934 138.819C119.588 139.455 120.109 140.214 120.47 141.052C120.83 141.89 121.021 142.79 121.032 143.702V143.868C121.032 168.537 121.066 193.201 121.132 217.858C137.628 217.692 148.59 199.487 149.439 198.028V143.818C149.439 141.957 150.178 140.173 151.495 138.857C152.812 137.541 154.598 136.802 156.46 136.802C158.322 136.802 160.108 137.541 161.424 138.857C162.741 140.173 163.481 141.957 163.481 143.818V171.242L163.647 171.692C163.647 177.013 163.659 182.334 163.681 187.655C166.363 187.623 169.02 187.137 171.54 186.219C183.584 181.837 191.271 169.062 191.976 167.848V131.454L191.526 130.445L191.965 131.427C191.598 124.025 188.404 117.046 183.04 111.929C177.676 106.812 170.552 103.947 163.137 103.925H162.166C154.777 103.947 147.698 106.89 142.474 112.112C137.251 117.334 134.307 124.409 134.286 131.793C134.277 127.089 133.078 122.465 130.802 118.348C128.526 114.232 125.245 110.757 121.266 108.246C115.638 104.974 110.609 103.753 106.147 103.931H106.18C98.9846 104.006 92.0952 106.85 86.9434 111.87C81.7917 116.891 78.7739 123.702 78.5173 130.889V207.691C78.2287 207.364 77.9623 207.031 77.657 206.698C65.8985 192.747 59.575 175.023 59.8493 156.785C60.1236 138.546 66.9773 121.02 79.15 107.429C91.3228 93.8377 107.996 85.0955 126.104 82.8099C144.212 80.5242 162.536 84.8489 177.708 94.9885C192.88 105.128 203.879 120.401 208.682 137.998C213.485 155.596 211.77 174.335 203.851 190.769C195.933 207.204 182.343 220.228 165.583 227.448C148.822 234.668 130.016 235.598 112.624 230.067C112.624 230.067 101.568 248.56 85.8714 252.781C101.233 260.829 118.324 265.018 135.669 264.985C194.94 264.985 243 216.96 243 157.73C243 98.5004 194.94 50.47 135.669 50.47C76.3971 50.47 28.3428 98.4949 28.3428 157.73C28.3315 175.072 32.5322 192.158 40.5843 207.52C48.6364 222.882 60.2992 236.061 74.571 245.925" fill="white"/>
<path d="M74.571 245.92C90.5003 241.654 98.6315 233.234 102.766 226.145C103.266 225.291 103.704 224.454 104.093 223.649C99.2864 213.587 87.9972 190.923 78.5062 179.274V207.68C78.2176 207.352 77.9512 207.02 77.6459 206.687C71.4522 199.367 66.7024 190.941 63.6481 181.853C59.3522 219.689 29.5749 174.016 28.6813 149.055C28.4556 151.906 28.3428 154.794 28.3428 157.719C28.331 175.061 32.5316 192.147 40.5837 207.509C48.6358 222.871 60.2989 236.05 74.571 245.914" fill="white"/>
<path d="M74.571 245.92C90.5003 241.654 98.6315 233.234 102.766 226.145C106.568 219.628 106.99 214.236 106.99 214.236V143.791C106.965 141.98 107.659 140.233 108.92 138.933C110.18 137.632 111.905 136.884 113.717 136.852H113.995C114.907 136.839 115.813 137.006 116.66 137.344C117.508 137.682 118.281 138.183 118.934 138.819C119.588 139.455 120.109 140.214 120.47 141.052C120.83 141.89 121.021 142.79 121.032 143.702V143.868C121.032 168.537 121.066 193.201 121.132 217.858C137.628 217.692 148.59 199.487 149.439 198.028V143.818C149.439 141.957 150.178 140.173 151.495 138.857C152.812 137.541 154.598 136.802 156.46 136.802C158.322 136.802 160.108 137.541 161.424 138.857C162.741 140.173 163.481 141.957 163.481 143.818V171.242L163.647 171.692C163.647 177.013 163.659 182.334 163.681 187.655C166.363 187.623 169.02 187.137 171.54 186.219C183.584 181.837 191.271 169.062 191.976 167.848V131.454L191.526 130.445L191.965 131.427C191.598 124.025 188.404 117.046 183.04 111.929C177.676 106.812 170.552 103.947 163.137 103.925H162.166C154.777 103.947 147.698 106.89 142.474 112.112C137.251 117.334 134.307 124.409 134.286 131.793C134.277 127.089 133.078 122.465 130.802 118.348C128.526 114.232 125.245 110.757 121.266 108.246C115.638 104.974 110.609 103.753 106.147 103.931H106.18C98.9846 104.006 92.0952 106.85 86.9434 111.87C81.7917 116.891 78.7739 123.702 78.5173 130.889V207.691C78.1898 217.797 65.1966 239.818 44.0057 213.526C51.8304 226.333 62.2448 237.367 74.5822 245.92" fill="white"/>
<path d="M113.961 72.3524C141.619 72.318 168.174 83.1868 187.863 102.6C190.446 105.052 192.857 107.681 195.078 110.465C211.483 130.254 220.079 155.355 219.247 181.039C218.415 206.723 208.211 231.216 190.56 249.903C206.547 240.401 219.787 226.909 228.981 210.749C238.174 194.59 243.006 176.319 243 157.73C243 98.4949 194.95 50.47 135.679 50.47C118.648 50.462 101.86 54.5096 86.7065 62.2777C71.5527 70.0458 58.4692 81.3106 48.5396 95.139C67.1457 80.35 90.2264 72.3156 114 72.3524" fill="white"/>
<path d="M382.932 88.8956C386.53 88.8956 389.656 89.5781 392.312 90.943C395.053 92.3079 397.28 94.1847 398.993 96.5733C400.706 98.962 401.991 101.734 402.848 104.891C403.704 108.047 404.133 111.46 404.133 115.128V154.668H388.714V115.128C388.714 112.142 387.643 109.583 385.502 107.45C383.446 105.317 380.876 104.251 377.792 104.251C374.708 104.251 372.139 105.317 370.083 107.45C367.941 109.583 366.871 112.142 366.871 115.128V154.668H351.452V115.128C351.452 112.142 350.381 109.583 348.239 107.45C347.211 106.341 346.012 105.531 344.642 105.019C343.357 104.507 341.986 104.251 340.53 104.251C337.361 104.251 334.748 105.317 332.692 107.45C330.551 109.583 329.48 112.142 329.48 115.128V154.668H314.061V90.6871H329.48V96.3174C331.964 94.1847 334.577 92.4359 337.318 91.071C340.059 89.6207 342.843 88.8956 345.67 88.8956C349.524 88.8956 352.694 89.6634 355.178 91.1989C357.662 92.7345 359.889 94.8672 361.859 97.5971C364.172 95.1231 367.17 93.0757 370.854 91.4549C374.537 89.7487 378.563 88.8956 382.932 88.8956Z" fill="white"/>
<path d="M418.876 154.668V90.6871H434.295V154.668H418.876ZM418.876 65.0946H434.295V80.4501H418.876V65.0946Z" fill="white"/>
<path d="M465.188 95.5497C467.586 93.5876 470.285 91.9667 473.283 90.6871C476.367 89.4075 479.836 88.7677 483.69 88.7677V104.123C478.551 104.123 474.182 105.915 470.584 109.498C466.987 113.251 465.188 117.602 465.188 122.55V154.668H449.769V90.5591H465.188V95.5497Z" fill="white"/>
<path d="M559.125 90.5591V154.668H543.707V122.678C543.707 117.559 541.908 113.208 538.31 109.626C534.712 106.043 530.344 104.251 525.204 104.251C522.72 104.251 520.321 104.72 518.008 105.659C515.781 106.597 513.811 107.919 512.098 109.626C508.5 113.208 506.701 117.559 506.701 122.678C506.701 127.711 508.5 132.019 512.098 135.602C513.811 137.393 515.781 138.758 518.008 139.697C520.321 140.55 522.72 140.976 525.204 140.976C527.774 140.976 530.087 140.55 532.142 139.697L537.668 153.389C533.727 155.351 529.144 156.332 523.919 156.332C519.208 156.332 514.839 155.479 510.813 153.772C506.873 151.981 503.446 149.55 500.534 146.479C497.621 143.408 495.351 139.825 493.724 135.73C492.096 131.635 491.282 127.284 491.282 122.678C491.282 117.986 492.096 113.592 493.724 109.498C495.351 105.403 497.621 101.82 500.534 98.7487C503.446 95.6776 506.873 93.289 510.813 91.5828C514.839 89.7914 519.208 88.8956 523.919 88.8956C528.116 88.8956 531.843 89.5354 535.098 90.8151C538.353 92.0947 541.222 93.7155 543.707 95.6776V90.5591H559.125Z" fill="white"/>
<path d="M642.774 88.8956C646.371 88.8956 649.498 89.5781 652.154 90.943C654.895 92.3079 657.122 94.1847 658.835 96.5733C660.548 98.962 661.833 101.734 662.69 104.891C663.546 108.047 663.975 111.46 663.975 115.128V154.668H648.556V115.128C648.556 112.142 647.485 109.583 645.344 107.45C643.288 105.317 640.718 104.251 637.634 104.251C634.55 104.251 631.981 105.317 629.925 107.45C627.783 109.583 626.712 112.142 626.712 115.128V154.668H611.294V115.128C611.294 112.142 610.223 109.583 608.081 107.45C607.053 106.341 605.854 105.531 604.484 105.019C603.199 104.507 601.828 104.251 600.372 104.251C597.202 104.251 594.59 105.317 592.534 107.45C590.393 109.583 589.322 112.142 589.322 115.128V154.668H573.903V90.6871H589.322V96.3174C591.806 94.1847 594.418 92.4359 597.16 91.071C599.901 89.6207 602.685 88.8956 605.512 88.8956C609.366 88.8956 612.536 89.6634 615.02 91.1989C617.504 92.7345 619.731 94.8672 621.701 97.5971C624.014 95.1231 627.012 93.0757 630.696 91.4549C634.379 89.7487 638.405 88.8956 642.774 88.8956Z" fill="white"/>
<path d="M744.634 90.5591V154.668H729.215V122.678C729.215 117.559 727.416 113.208 723.818 109.626C720.22 106.043 715.852 104.251 710.712 104.251C708.228 104.251 705.829 104.72 703.517 105.659C701.289 106.597 699.319 107.919 697.606 109.626C694.008 113.208 692.209 117.559 692.209 122.678C692.209 127.711 694.008 132.019 697.606 135.602C699.319 137.393 701.289 138.758 703.517 139.697C705.829 140.55 708.228 140.976 710.712 140.976C713.282 140.976 715.595 140.55 717.651 139.697L723.176 153.389C719.235 155.351 714.652 156.332 709.427 156.332C704.716 156.332 700.347 155.479 696.321 153.772C692.381 151.981 688.954 149.55 686.042 146.479C683.129 143.408 680.859 139.825 679.232 135.73C677.604 131.635 676.791 127.284 676.791 122.678C676.791 117.986 677.604 113.592 679.232 109.498C680.859 105.403 683.129 101.82 686.042 98.7487C688.954 95.6776 692.381 93.289 696.321 91.5828C700.347 89.7914 704.716 88.8956 709.427 88.8956C713.625 88.8956 717.351 89.5354 720.606 90.8151C723.861 92.0947 726.731 93.7155 729.215 95.6776V90.5591H744.634Z" fill="white"/>
<path d="M792.433 88.8956C796.63 88.8956 800.442 89.706 803.869 91.3269C807.295 92.8624 810.208 95.0378 812.606 97.853C815.09 100.583 816.975 103.782 818.26 107.45C819.63 111.118 820.315 115.043 820.315 119.223V154.668H804.897V119.223C804.897 114.957 803.398 111.417 800.399 108.602C797.487 105.701 793.975 104.251 789.863 104.251C785.666 104.251 782.111 105.701 779.199 108.602C776.286 111.502 774.83 115.043 774.83 119.223V154.668H759.411V90.6871H774.83V95.5497C777.143 93.5876 779.755 92.0094 782.668 90.8151C785.58 89.5354 788.835 88.8956 792.433 88.8956Z" fill="white"/>
<path d="M331.817 196.644V193.155H313V218.649H331.817V215.161H316.801V207.405H330.364V203.917H316.801V196.644H331.817Z" fill="white"/>
<path d="M373.508 218.649H382.339C390.611 218.649 396.499 213.343 396.499 205.884C396.499 198.425 390.611 193.155 382.339 193.155H373.508V218.649ZM377.271 215.235V196.569H382.563C388.487 196.569 392.623 200.429 392.623 205.884C392.623 211.376 388.487 215.235 382.563 215.235H377.271Z" fill="white"/>
<path d="M449.14 219.095C455.549 219.095 460.132 214.456 460.132 207.925V193.155H456.331V207.851C456.331 212.415 453.35 215.681 449.14 215.681C444.892 215.681 441.911 212.415 441.911 207.851V193.155H438.147V207.925C438.147 214.456 442.693 219.095 449.14 219.095Z" fill="white"/>
<path d="M514.685 219.095C518.337 219.095 521.69 217.536 524.112 215.087L521.467 212.563C519.753 214.419 517.331 215.644 514.685 215.644C509.58 215.644 505.258 211.19 505.258 205.884C505.258 200.614 509.58 196.161 514.685 196.161C517.331 196.161 519.753 197.386 521.467 199.241L524.112 196.718C521.69 194.232 518.337 192.71 514.685 192.71C507.493 192.71 501.382 198.722 501.382 205.884C501.382 213.046 507.493 219.095 514.685 219.095Z" fill="white"/>
<path d="M584.573 218.649H588.746L577.754 193.155H573.581L562.588 218.649H566.761L568.997 213.454H582.337L584.573 218.649ZM570.45 210.077L575.667 197.98L580.884 210.077H570.45Z" fill="white"/>
<path d="M633.739 218.649H637.502V196.644H645.923V193.155H625.355V196.644H633.739V218.649Z" fill="white"/>
<path d="M686.756 218.649H690.519V193.155H686.756V218.649Z" fill="white"/>
<path d="M744.957 219.095C752.148 219.095 758.185 213.046 758.185 205.884C758.185 198.722 752.148 192.71 744.957 192.71C737.765 192.71 731.654 198.722 731.654 205.884C731.654 213.046 737.765 219.095 744.957 219.095ZM744.957 215.644C739.852 215.644 735.53 211.19 735.53 205.884C735.53 200.614 739.852 196.161 744.957 196.161C750.062 196.161 754.347 200.614 754.347 205.884C754.347 211.19 750.062 215.644 744.957 215.644Z" fill="white"/>
<path d="M799.754 218.649H803.518V199.316L818.237 218.649H822V193.155H818.237V212.489L803.518 193.155H799.754V218.649Z" fill="white"/>
</svg>
