<svg width="30" height="29" viewBox="0 0 30 29" fill="none" xmlns="http://www.w3.org/2000/svg">
<path d="M26.5319 0.95H3.46025C2.07605 0.95 0.95 2.07605 0.95 3.46025V26.4226C0.95 27.8068 2.07605 28.9328 3.46025 28.9328H26.5319C27.9161 28.9328 29.0422 27.8068 29.0422 26.4226V3.46025C29.0422 2.07605 27.9161 0.95 26.5319 0.95ZM3.46025 2.69017H26.5319C26.9565 2.69017 27.302 3.03567 27.302 3.46025V7.51066H2.69017V3.46025C2.69017 3.03567 3.03567 2.69017 3.46025 2.69017ZM26.5319 27.1926H3.46025C3.03567 27.1926 2.69017 26.8471 2.69017 26.4226V9.25083H27.302V26.4226C27.302 26.8471 26.9565 27.1926 26.5319 27.1926Z" fill="#008AE4" stroke="#008AE4" stroke-width="0.1"/>
<path d="M12.2124 24.7162L12.1929 24.7618C11.7512 24.5725 11.5466 24.061 11.7359 23.6193L12.2124 24.7162ZM12.2124 24.7162L12.1929 24.7618C12.6347 24.9511 13.1461 24.7463 13.3354 24.3048L18.2559 12.8237C18.4452 12.382 18.2406 11.8705 17.7989 11.6812C17.3573 11.4919 16.8457 11.6965 16.6564 12.1382L11.7359 23.6193L12.2124 24.7162Z" fill="#008AE4" stroke="#008AE4" stroke-width="0.1"/>
<path d="M10.7547 14.3979L10.7547 14.3979C11.0549 14.7732 10.9941 15.3207 10.6188 15.6209C10.6188 15.6209 10.6188 15.6209 10.6188 15.6209L7.36773 18.2218L10.6188 20.8228C10.9941 21.1229 11.0549 21.6705 10.7547 22.0457C10.7547 22.0457 10.7547 22.0457 10.7547 22.0457L10.7157 22.0145C10.4329 22.3681 9.91671 22.4255 9.56304 22.1425L10.7547 14.3979ZM10.7547 14.3979C10.4545 14.0227 9.90688 13.9619 9.5318 14.262C9.5318 14.262 9.5318 14.262 9.53179 14.262L5.43139 17.5424L10.7547 14.3979Z" fill="#008AE4" stroke="#008AE4" stroke-width="0.1"/>
<path d="M19.2371 22.0456L19.2371 22.0456C18.937 21.6704 18.9977 21.1229 19.373 20.8227C19.373 20.8227 19.373 20.8227 19.373 20.8227L22.6241 18.2218L19.373 15.6208C18.9977 15.3207 18.937 14.7731 19.2371 14.3979C19.2371 14.3979 19.2371 14.3979 19.2371 14.3979L19.2762 14.4291C19.5591 14.0755 20.0752 14.0181 20.4288 14.3011L19.2371 22.0456ZM19.2371 22.0456C19.5377 22.4213 20.0854 22.4814 20.4601 22.1815L24.5605 18.9012C24.5605 18.9012 24.5605 18.9012 24.5605 18.9012C24.9955 18.5533 24.9958 17.8905 24.5605 17.5424L20.4601 14.2621L19.2371 22.0456Z" fill="#008AE4" stroke="#008AE4" stroke-width="0.1"/>
<path d="M5.15504 5.97044C5.63558 5.97044 6.02513 5.58089 6.02513 5.10036C6.02513 4.61982 5.63558 4.23027 5.15504 4.23027C4.67451 4.23027 4.28496 4.61982 4.28496 5.10036C4.28496 5.58089 4.67451 5.97044 5.15504 5.97044Z" fill="#008AE4" stroke="#008AE4" stroke-width="0.1"/>
<path d="M8.43532 5.97044C8.91585 5.97044 9.3054 5.58089 9.3054 5.10036C9.3054 4.61982 8.91585 4.23027 8.43532 4.23027C7.95478 4.23027 7.56523 4.61982 7.56523 5.10036C7.56523 5.58089 7.95478 5.97044 8.43532 5.97044Z" fill="#008AE4" stroke="#008AE4" stroke-width="0.1"/>
<path d="M11.7158 5.97044C12.1964 5.97044 12.5859 5.58089 12.5859 5.10036C12.5859 4.61982 12.1964 4.23027 11.7158 4.23027C11.2353 4.23027 10.8458 4.61982 10.8458 5.10036C10.8458 5.58089 11.2353 5.97044 11.7158 5.97044Z" fill="#008AE4" stroke="#008AE4" stroke-width="0.1"/>
<path d="M19.9165 5.97044H24.837C25.3175 5.97044 25.7071 5.58087 25.7071 5.10036C25.7071 4.61984 25.3175 4.23027 24.837 4.23027H19.9165C19.436 4.23027 19.0464 4.61984 19.0464 5.10036C19.0464 5.58087 19.436 5.97044 19.9165 5.97044Z" fill="#008AE4" stroke="#008AE4" stroke-width="0.1"/>
</svg>
