<svg width="52" height="52" viewBox="0 0 52 52" fill="none" xmlns="http://www.w3.org/2000/svg">
    <rect width="52" height="52" rx="10" fill="url(#paint0_linear)"/>
    <path d="M21.6305 19.9251H17.2881C16.8108 19.9251 16.4239 20.312 16.4239 20.7893C16.4239 21.2666 16.8108 21.6535 17.2881 21.6535H21.6305C22.1077 21.6535 22.4946 21.2666 22.4946 20.7893C22.4946 20.312 22.1077 19.9251 21.6305 19.9251Z" fill="white" stroke="white" stroke-width="0.1"/>
    <path d="M21.6305 24.2674H17.2881C16.8108 24.2674 16.4239 24.6543 16.4239 25.1316C16.4239 25.6088 16.8108 25.9958 17.2881 25.9958H21.6305C22.1077 25.9958 22.4946 25.6088 22.4946 25.1316C22.4946 24.6543 22.1077 24.2674 21.6305 24.2674Z" fill="white" stroke="white" stroke-width="0.1"/>
    <path d="M21.6305 28.6099H17.2881C16.8108 28.6099 16.4239 28.9968 16.4239 29.4741C16.4239 29.9514 16.8108 30.3383 17.2881 30.3383H21.6305C22.1077 30.3383 22.4946 29.9514 22.4946 29.4741C22.4946 28.9968 22.1077 28.6099 21.6305 28.6099Z" fill="white" stroke="white" stroke-width="0.1"/>
    <path d="M28.8631 13.2869L28.8628 13.2865C28.0928 12.5035 27.0215 12.0545 25.9235 12.0545H15.4426C14.0681 12.0545 12.95 13.1726 12.95 14.5471V35.6619C12.95 37.0364 14.0681 38.1545 15.4426 38.1545H28.0064C29.1742 39.2639 30.7522 39.9457 32.4864 39.9457C36.1052 39.9457 39.05 37.0261 39.05 33.4364C39.05 30.1373 36.5626 27.4043 33.3506 26.9835V19.594C33.3506 18.5079 32.9318 17.483 32.1713 16.7079C32.1713 16.7079 32.1712 16.7079 32.1712 16.7078L28.8679 13.2918L28.8679 13.2918L28.8631 13.2869ZM30.9357 17.9165L30.936 17.9169C31.3786 18.3671 31.6222 18.9626 31.6222 19.5941V26.9844C28.44 27.4084 25.9771 30.1401 25.9771 33.4365C25.9771 34.5136 26.2405 35.5304 26.7056 36.4262H15.4426C15.0213 36.4261 14.6784 36.0832 14.6784 35.6619V14.5471C14.6784 14.1257 15.0213 13.7829 15.4426 13.7829H25.9235C26.5599 13.7829 27.1812 14.0429 27.6282 14.4961C27.6283 14.4962 27.6283 14.4962 27.6284 14.4963L30.931 17.9117L30.931 17.9117L30.9357 17.9165ZM32.4864 38.2173C29.8503 38.2173 27.7055 36.0726 27.7055 33.4364C27.7055 30.8003 29.8503 28.6555 32.4864 28.6555C35.153 28.6555 37.3216 30.8008 37.3216 33.4364C37.3216 36.0721 35.153 38.2173 32.4864 38.2173Z" fill="white" stroke="white" stroke-width="0.1"/>
    <path d="M34.3967 31.4701L34.3967 31.4701C34.7633 31.7756 34.8129 32.3205 34.5073 32.6872L34.5073 32.6873L32.3361 35.2927L32.3361 35.2927C32.1709 35.4909 31.927 35.6036 31.6723 35.6036C31.6391 35.6036 31.6059 35.6017 31.5727 35.5979L31.5726 35.5979C31.2829 35.5642 31.0297 35.3868 30.8993 35.1259L30.0308 33.3889L34.3967 31.4701ZM34.3967 31.4701C34.0301 31.1646 33.4851 31.2141 33.1795 31.5807L33.1795 31.5807M34.3967 31.4701L33.1795 31.5807M33.1795 31.5807L31.8543 33.1711L33.1795 31.5807Z" fill="white" stroke="white" stroke-width="0.1"/>
    <path d="M25.9729 21.6535H26.8414C27.3186 21.6535 27.7056 21.2666 27.7056 20.7893C27.7056 20.312 27.3186 19.9251 26.8414 19.9251H25.9729C25.4956 19.9251 25.1087 20.312 25.1087 20.7893C25.1087 21.2666 25.4956 21.6535 25.9729 21.6535Z" fill="white" stroke="white" stroke-width="0.1"/>
    <path d="M27.7056 25.1316C27.7056 24.6543 27.3186 24.2674 26.8414 24.2674H25.9729C25.4956 24.2674 25.1087 24.6543 25.1087 25.1316C25.1087 25.6088 25.4956 25.9958 25.9729 25.9958H26.8414C27.3186 25.9958 27.7056 25.6088 27.7056 25.1316Z" fill="white" stroke="white" stroke-width="0.1"/>
    <defs>
        <linearGradient id="paint0_linear" x1="52" y1="52" x2="-41.5797" y2="36.5647" gradientUnits="userSpaceOnUse">
            <stop stop-color="#FFA800"/>
            <stop offset="1" stop-color="#FFEBA6"/>
        </linearGradient>
    </defs>
</svg>
