<svg id="svg" version="1.1" xmlns="http://www.w3.org/2000/svg" xmlns:xlink="http://www.w3.org/1999/xlink" width="37" height="37" viewBox="0, 0, 400,400">
    <g id="svgg">
        <path id="path0" d="M90.756 158.646 C 76.005 161.095,55.231 180.956,52.149 195.556 C 49.950 205.973,58.115 220.729,72.356 232.071 C 87.179 243.878,96.855 244.505,110.151 234.520 C 129.353 220.101,136.721 205.167,131.961 190.311 C 128.607 179.841,118.306 169.106,104.533 161.728 C 99.228 158.886,95.003 157.941,90.756 158.646 M95.495 177.850 C 102.819 179.257,113.079 188.938,115.200 196.444 C 117.470 204.479,112.541 212.870,100.999 220.620 C 94.067 225.276,87.075 223.726,79.071 215.761 C 68.310 205.052,67.909 197.373,77.581 187.261 C 85.072 179.430,90.064 176.807,95.495 177.850 " stroke="none" fill="#54b4d4" fill-rule="evenodd"></path>
        <path id="path1" d="M175.822 174.168 C 162.757 175.574,157.335 183.411,157.335 200.889 C 157.335 217.769,162.364 225.573,174.479 227.496 C 179.299 228.261,190.663 227.147,192.460 225.734 C 193.246 225.115,193.072 217.956,192.271 217.956 C 192.238 217.956,191.184 218.070,189.928 218.211 C 173.256 220.074,169.156 216.654,169.156 200.889 C 169.156 185.350,172.826 182.145,188.927 183.627 C 192.464 183.952,192.178 184.263,192.178 180.095 C 192.178 176.200,192.269 176.395,190.138 175.718 C 186.178 174.461,179.662 173.755,175.822 174.168 M282.489 174.168 C 269.280 175.589,264.113 183.102,264.113 200.889 C 264.113 218.096,268.885 225.550,281.146 227.496 C 285.966 228.261,297.330 227.147,299.127 225.734 C 299.913 225.115,299.739 217.956,298.938 217.956 C 298.905 217.956,297.851 218.070,296.595 218.210 C 279.926 220.069,275.822 216.647,275.822 200.889 C 275.822 185.350,279.493 182.145,295.594 183.627 C 299.132 183.952,298.844 184.266,298.844 180.080 C 298.844 176.170,298.947 176.394,296.865 175.736 C 292.815 174.457,286.355 173.752,282.489 174.168 M201.702 175.213 C 201.448 175.467,201.194 212.598,201.408 218.222 C 201.607 223.449,203.707 226.230,208.267 227.305 C 211.797 228.137,233.970 227.530,235.028 226.572 C 235.454 226.187,235.576 219.292,235.164 218.880 C 235.004 218.719,232.597 218.666,225.431 218.666 C 215.413 218.665,214.989 218.634,214.053 217.846 C 212.943 216.913,212.978 217.632,212.978 195.533 L 212.978 175.487 212.583 175.210 C 211.988 174.793,202.119 174.796,201.702 175.213 M242.570 175.370 L 242.133 175.806 242.133 200.930 C 242.133 223.382,242.163 226.096,242.410 226.449 C 242.686 226.843,242.711 226.844,248.000 226.844 C 253.289 226.844,253.314 226.843,253.590 226.449 C 253.837 226.096,253.867 223.382,253.867 200.930 L 253.867 175.806 253.430 175.370 L 252.994 174.933 248.000 174.933 L 243.006 174.933 242.570 175.370 M308.484 175.210 L 308.089 175.487 308.089 200.952 C 308.089 220.522,308.138 226.467,308.302 226.631 C 308.699 227.028,318.983 226.925,319.349 226.521 C 319.614 226.228,319.646 225.088,319.688 214.701 L 319.733 203.204 327.276 214.681 C 331.425 220.993,335.016 226.312,335.256 226.501 C 335.793 226.924,347.640 227.044,348.053 226.631 C 348.527 226.158,347.920 225.208,339.284 212.902 C 334.349 205.869,330.311 200.052,330.311 199.974 C 330.311 199.896,333.871 194.543,338.222 188.079 C 346.167 176.277,346.496 175.723,345.920 175.147 C 345.562 174.789,335.078 174.849,334.375 175.213 C 333.967 175.424,332.084 178.133,326.742 186.191 L 319.650 196.889 319.647 186.267 C 319.645 175.883,319.636 175.636,319.289 175.289 C 318.803 174.803,309.166 174.732,308.484 175.210 " stroke="none" fill="#141424" fill-rule="evenodd"></path>
        <path id="path2" d="" stroke="none" fill="#34b8ac" fill-rule="evenodd"></path>
        <path id="path3" d="" stroke="none" fill="#346850" fill-rule="evenodd"></path>
        <path id="path4" d="" stroke="none" fill="#341454" fill-rule="evenodd"></path>
    </g>
</svg>
