<svg width="517" height="464" viewBox="0 0 517 464" fill="none" xmlns="http://www.w3.org/2000/svg">
<path d="M89.1667 300.391V391.36H71.3333V332.36L45.6898 374.596H43.6071L17.9635 332.49V391.36H0V300.391H18.4842L44.6484 343.406L70.6825 300.391H89.1667Z" fill="#2D4D6C"/>
<path d="M113.695 318.585C110.918 318.585 108.488 317.589 106.405 315.596C104.409 313.517 103.411 311.091 103.411 308.318C103.411 305.546 104.409 303.12 106.405 301.041C108.488 298.962 110.918 297.922 113.695 297.922C116.558 297.922 118.988 298.962 120.984 301.041C123.067 303.12 124.108 305.546 124.108 308.318C124.108 311.091 123.067 313.517 120.984 315.596C118.988 317.589 116.558 318.585 113.695 318.585ZM105.364 391.36V326.382H122.156V391.36H105.364Z" fill="#2D4D6C"/>
<path d="M154.317 337.558C155.879 333.4 158.439 330.281 161.997 328.202C165.642 326.122 169.677 325.083 174.103 325.083V343.796C168.983 343.19 164.383 344.23 160.305 346.915C156.313 349.601 154.317 354.063 154.317 360.301V391.36H137.525V326.382H154.317V337.558Z" fill="#2D4D6C"/>
<path d="M230.973 326.382H247.765V391.36H230.973V383.693C225.94 390.017 218.867 393.18 209.755 393.18C201.077 393.18 193.614 389.887 187.366 383.303C181.205 376.632 178.124 368.488 178.124 358.871C178.124 349.254 181.205 341.154 187.366 334.569C193.614 327.898 201.077 324.563 209.755 324.563C218.867 324.563 225.94 327.725 230.973 334.05V326.382ZM199.992 372.127C203.377 375.506 207.673 377.195 212.879 377.195C218.086 377.195 222.382 375.506 225.766 372.127C229.237 368.661 230.973 364.243 230.973 358.871C230.973 353.5 229.237 349.125 225.766 345.746C222.382 342.28 218.086 340.547 212.879 340.547C207.673 340.547 203.377 342.28 199.992 345.746C196.608 349.125 194.916 353.5 194.916 358.871C194.916 364.243 196.608 368.661 199.992 372.127Z" fill="#2D4D6C"/>
<path d="M334.976 324.563C342.439 324.563 348.384 326.989 352.809 331.84C357.322 336.692 359.578 343.19 359.578 351.334V391.36H342.786V352.503C342.786 348.605 341.832 345.572 339.923 343.406C338.013 341.241 335.323 340.158 331.852 340.158C328.034 340.158 325.04 341.414 322.87 343.926C320.788 346.439 319.746 350.078 319.746 354.843V391.36H302.954V352.503C302.954 348.605 302 345.572 300.09 343.406C298.181 341.241 295.491 340.158 292.02 340.158C288.288 340.158 285.294 341.414 283.038 343.926C280.869 346.439 279.784 350.078 279.784 354.843V391.36H262.992V326.382H279.784V333.27C283.689 327.465 289.72 324.563 297.878 324.563C305.861 324.563 311.762 327.682 315.581 333.92C319.92 327.682 326.385 324.563 334.976 324.563Z" fill="#2D4D6C"/>
<path d="M423.305 326.382H440.097V391.36H423.305V383.693C418.272 390.017 411.199 393.18 402.087 393.18C393.409 393.18 385.946 389.887 379.698 383.303C373.536 376.632 370.456 368.488 370.456 358.871C370.456 349.254 373.536 341.154 379.698 334.569C385.946 327.898 393.409 324.563 402.087 324.563C411.199 324.563 418.272 327.725 423.305 334.05V326.382ZM392.324 372.127C395.709 375.506 400.004 377.195 405.211 377.195C410.418 377.195 414.714 375.506 418.098 372.127C421.569 368.661 423.305 364.243 423.305 358.871C423.305 353.5 421.569 349.125 418.098 345.746C414.714 342.28 410.418 340.547 405.211 340.547C400.004 340.547 395.709 342.28 392.324 345.746C388.94 349.125 387.248 353.5 387.248 358.871C387.248 364.243 388.94 368.661 392.324 372.127Z" fill="#2D4D6C"/>
<path d="M491.511 324.563C498.627 324.563 504.485 326.945 509.084 331.71C513.77 336.475 516.113 343.06 516.113 351.464V391.36H499.321V353.543C499.321 349.211 498.15 345.919 495.807 343.666C493.464 341.327 490.339 340.158 486.434 340.158C482.095 340.158 478.624 341.5 476.021 344.186C473.417 346.872 472.116 350.901 472.116 356.272V391.36H455.324V326.382H472.116V333.66C476.194 327.595 482.659 324.563 491.511 324.563Z" fill="#2D4D6C"/>
<path d="M95.0905 458.944H107.196V463.233H90.5996V435.942H107.001V440.23H95.0905V447.326H106.025V451.576H95.0905V458.944Z" fill="#8DA0B3"/>
<path d="M137.667 435.942C141.416 435.942 144.527 437.254 147 439.88C149.499 442.505 150.749 445.741 150.749 449.587C150.749 453.408 149.499 456.644 147 459.295C144.527 461.92 141.416 463.233 137.667 463.233H126.928V435.942H137.667ZM137.667 458.944C140.244 458.944 142.34 458.06 143.954 456.293C145.594 454.526 146.414 452.29 146.414 449.587C146.414 446.858 145.594 444.623 143.954 442.882C142.34 441.114 140.244 440.23 137.667 440.23H131.419V458.944H137.667Z" fill="#8DA0B3"/>
<path d="M187.769 461.166C185.842 462.882 183.356 463.739 180.31 463.739C177.264 463.739 174.778 462.882 172.851 461.166C170.925 459.425 169.962 457.099 169.962 454.188V435.942H174.452V453.915C174.452 455.578 174.934 456.904 175.897 457.891C176.887 458.879 178.357 459.373 180.31 459.373C182.263 459.373 183.721 458.879 184.684 457.891C185.673 456.904 186.168 455.578 186.168 453.915V435.942H190.659V454.188C190.659 457.099 189.695 459.425 187.769 461.166Z" fill="#8DA0B3"/>
<path d="M224.37 463.739C220.257 463.739 216.847 462.388 214.139 459.685C211.431 456.956 210.078 453.59 210.078 449.587C210.078 445.585 211.431 442.232 214.139 439.529C216.847 436.8 220.257 435.435 224.37 435.435C226.844 435.435 229.122 436.02 231.204 437.189C233.313 438.359 234.953 439.945 236.125 441.946L232.22 444.207C231.491 442.856 230.423 441.79 229.017 441.01C227.638 440.204 226.089 439.802 224.37 439.802C221.455 439.802 219.085 440.724 217.263 442.57C215.467 444.415 214.569 446.754 214.569 449.587C214.569 452.42 215.467 454.76 217.263 456.605C219.085 458.45 221.455 459.373 224.37 459.373C226.089 459.373 227.651 458.983 229.057 458.203C230.462 457.398 231.517 456.319 232.22 454.967L236.125 457.19C234.979 459.191 233.352 460.789 231.243 461.985C229.161 463.155 226.87 463.739 224.37 463.739Z" fill="#8DA0B3"/>
<path d="M273.093 463.233L271.179 457.736H259.542L257.628 463.233H252.747L262.666 435.942H268.055L277.935 463.233H273.093ZM261.026 453.525H269.695L265.361 441.205L261.026 453.525Z" fill="#8DA0B3"/>
<path d="M312.318 435.942V440.23H304.625V463.233H300.134V440.23H292.402V435.942H312.318Z" fill="#8DA0B3"/>
<path d="M331.26 435.942H335.751V463.233H331.26V435.942Z" fill="#8DA0B3"/>
<path d="M379.678 459.646C376.945 462.375 373.599 463.739 369.642 463.739C365.685 463.739 362.327 462.375 359.567 459.646C356.834 456.891 355.467 453.538 355.467 449.587C355.467 445.637 356.834 442.297 359.567 439.568C362.327 436.813 365.685 435.435 369.642 435.435C373.599 435.435 376.945 436.813 379.678 439.568C382.438 442.297 383.818 445.637 383.818 449.587C383.818 453.538 382.438 456.891 379.678 459.646ZM362.73 456.605C364.605 458.45 366.909 459.373 369.642 459.373C372.376 459.373 374.667 458.45 376.515 456.605C378.39 454.734 379.327 452.394 379.327 449.587C379.327 446.78 378.39 444.454 376.515 442.609C374.667 440.737 372.376 439.802 369.642 439.802C366.909 439.802 364.605 440.737 362.73 442.609C360.882 444.454 359.958 446.78 359.958 449.587C359.958 452.394 360.882 454.734 362.73 456.605Z" fill="#8DA0B3"/>
<path d="M419.936 435.942H424.427V463.233H420.912L408.026 444.714V463.233H403.535V435.942H407.049L419.936 454.461V435.942Z" fill="#8DA0B3"/>
<path fill-rule="evenodd" clip-rule="evenodd" d="M243.41 28.646L204.632 30.924L178.465 59.5701L152.331 88.2004L159.196 102.512C157.907 103.575 157.404 105.281 158.081 106.694C158.429 107.359 158.982 107.894 159.657 108.22C160.333 108.547 161.096 108.647 161.832 108.505L161.874 108.836L162.437 113.122L167.309 110.802L164.301 107.68L164.069 107.44C164.642 106.959 165.043 106.305 165.212 105.576C165.381 104.847 165.309 104.082 165.007 103.396C164.329 101.983 162.679 101.299 161.041 101.634L154.545 88.0906L184.678 86.332L188.467 94.2309C195.88 82.2569 207.093 72.0169 221.124 65.336C235.155 58.6552 250.212 56.4312 264.213 58.1906L260.41 50.2624L282.231 26.3834L243.41 28.646Z" fill="url(#paint0_linear_1106_1432)"/>
<path d="M217.046 240.443C230.944 236.727 238.039 229.392 241.647 223.216C244.964 217.539 245.332 212.842 245.332 212.842V151.475C245.31 149.898 245.915 148.376 247.015 147.243C248.115 146.11 249.62 145.458 251.201 145.43H251.443C252.239 145.419 253.029 145.565 253.769 145.859C254.508 146.153 255.183 146.59 255.753 147.144C256.323 147.698 256.778 148.359 257.092 149.089C257.407 149.819 257.573 150.603 257.584 151.398V151.543C257.584 173.032 257.613 194.517 257.671 215.997C272.063 215.852 281.627 199.994 282.368 198.723V151.499C282.368 149.878 283.013 148.323 284.162 147.177C285.311 146.031 286.869 145.387 288.494 145.387C290.119 145.387 291.677 146.031 292.826 147.177C293.974 148.323 294.62 149.878 294.62 151.499V175.389L294.765 175.78C294.765 180.416 294.775 185.051 294.794 189.687C297.134 189.659 299.453 189.236 301.651 188.435C312.16 184.618 318.867 173.49 319.482 172.432V140.728L319.09 139.849L319.472 140.704C319.152 134.257 316.365 128.177 311.685 123.72C307.005 119.262 300.789 116.766 294.32 116.747H293.472C287.026 116.766 280.849 119.33 276.292 123.879C271.734 128.427 269.166 134.591 269.148 141.023C269.139 136.926 268.094 132.897 266.107 129.311C264.121 125.725 261.259 122.698 257.787 120.511C252.877 117.66 248.489 116.597 244.596 116.752H244.625C238.347 116.817 232.336 119.294 227.841 123.668C223.346 128.041 220.713 133.975 220.489 140.236V207.14C220.237 206.855 220.005 206.565 219.739 206.275C209.479 194.122 203.962 178.682 204.201 162.794C204.441 146.906 210.421 131.639 221.041 119.799C231.662 107.959 246.209 100.344 262.008 98.3527C277.807 96.3616 293.796 100.129 307.033 108.962C320.27 117.795 329.867 131.099 334.058 146.429C338.248 161.759 336.752 178.083 329.843 192.399C322.934 206.716 311.077 218.062 296.453 224.352C281.83 230.641 265.422 231.451 250.247 226.633C250.247 226.633 240.601 242.743 226.906 246.42C240.308 253.431 255.221 257.079 270.354 257.05C322.068 257.05 364 215.215 364 163.618C364 112.021 322.068 70.1804 270.354 70.1804C218.639 70.1804 176.712 112.016 176.712 163.618C176.702 178.725 180.367 193.609 187.393 206.991C194.418 220.373 204.594 231.854 217.046 240.448" fill="url(#paint1_linear_1106_1432)"/>
<path d="M217.046 240.443C230.944 236.727 238.039 229.392 241.647 223.216C242.082 222.472 242.465 221.743 242.804 221.042C238.61 212.277 228.76 192.533 220.479 182.386V207.131C220.228 206.845 219.995 206.556 219.729 206.266C214.325 199.889 210.181 192.549 207.516 184.632C203.768 217.592 177.787 177.805 177.007 156.061C176.81 158.544 176.712 161.06 176.712 163.608C176.702 178.715 180.367 193.599 187.392 206.982C194.418 220.364 204.594 231.845 217.046 240.438" fill="url(#paint2_linear_1106_1432)"/>
<path d="M217.046 240.443C230.944 236.727 238.039 229.392 241.647 223.216C244.964 217.539 245.332 212.842 245.332 212.842V151.475C245.31 149.897 245.915 148.376 247.015 147.243C248.115 146.11 249.62 145.458 251.201 145.43H251.443C252.239 145.419 253.03 145.565 253.769 145.859C254.509 146.153 255.183 146.59 255.753 147.144C256.323 147.698 256.778 148.359 257.093 149.089C257.407 149.819 257.574 150.603 257.584 151.397V151.542C257.584 173.032 257.613 194.517 257.671 215.997C272.063 215.852 281.627 199.993 282.368 198.723V151.499C282.368 149.878 283.014 148.323 284.162 147.177C285.311 146.03 286.869 145.386 288.494 145.386C290.119 145.386 291.677 146.03 292.826 147.177C293.975 148.323 294.62 149.878 294.62 151.499V175.389L294.765 175.78C294.765 180.416 294.775 185.051 294.794 189.687C297.134 189.659 299.453 189.235 301.651 188.435C312.16 184.618 318.867 173.49 319.482 172.431V140.728L319.09 139.849L319.472 140.704C319.152 134.256 316.365 128.177 311.685 123.719C307.005 119.262 300.79 116.766 294.32 116.747H293.472C287.026 116.766 280.849 119.33 276.292 123.879C271.734 128.427 269.166 134.591 269.148 141.023C269.14 136.926 268.094 132.897 266.108 129.311C264.121 125.725 261.259 122.698 257.787 120.511C252.877 117.66 248.489 116.597 244.596 116.752H244.625C238.347 116.817 232.336 119.294 227.841 123.668C223.346 128.041 220.713 133.975 220.489 140.235V207.14C220.204 215.944 208.867 235.127 190.378 212.223C197.205 223.38 206.292 232.992 217.056 240.443" fill="url(#paint3_linear_1106_1432)"/>
<path d="M251.414 89.2429C275.545 89.2129 298.715 98.681 315.893 115.592C318.147 117.729 320.251 120.018 322.189 122.444C336.502 139.682 344.002 161.549 343.276 183.923C342.55 206.297 333.647 227.634 318.247 243.912C332.195 235.635 343.747 223.882 351.769 209.805C359.79 195.728 364.005 179.811 364 163.618C364 112.016 322.077 70.1804 270.363 70.1804C255.503 70.1734 240.856 73.6995 227.635 80.4665C214.413 87.2335 202.997 97.0467 194.334 109.093C210.568 96.2098 230.706 89.2108 251.448 89.2429" fill="url(#paint4_linear_1106_1432)"/>
<defs>
<linearGradient id="paint0_linear_1106_1432" x1="304.451" y1="70.58" x2="117.69" y2="41.2532" gradientUnits="userSpaceOnUse">
<stop stop-color="#008AE4"/>
<stop offset="1" stop-color="#A6DCFF"/>
</linearGradient>
<linearGradient id="paint1_linear_1106_1432" x1="364.107" y1="226.367" x2="62.0533" y2="220.534" gradientUnits="userSpaceOnUse">
<stop stop-color="#0084E4"/>
<stop offset="1" stop-color="#A6DCFF"/>
</linearGradient>
<linearGradient id="paint2_linear_1106_1432" x1="183.477" y1="259.225" x2="149.29" y2="201.701" gradientUnits="userSpaceOnUse">
<stop stop-color="#008AE4"/>
<stop offset="1" stop-color="#A6DCFF"/>
</linearGradient>
<linearGradient id="paint3_linear_1106_1432" x1="290.015" y1="258.742" x2="162.158" y2="186.177" gradientUnits="userSpaceOnUse">
<stop stop-color="#008AE4"/>
<stop offset="1" stop-color="#A6DCFF"/>
</linearGradient>
<linearGradient id="paint4_linear_1106_1432" x1="442.072" y1="177.08" x2="226.361" y2="213.074" gradientUnits="userSpaceOnUse">
<stop stop-color="#007EF2"/>
<stop offset="1" stop-color="#A6DCFF"/>
</linearGradient>
</defs>
</svg>
