<svg width="52" height="52" viewBox="0 0 52 52" fill="none" xmlns="http://www.w3.org/2000/svg">
<rect width="52" height="52" rx="10" fill="url(#paint0_linear)"/>
<path d="M39.3893 21.7239L26.3458 16.0717C26.1252 15.9761 25.8748 15.9761 25.6542 16.0717L12.6107 21.7239C11.9137 22.0259 11.9135 23.0176 12.6107 23.3196L17.3043 25.3535V30.7827C17.3043 33.7083 21.1239 36.0001 26 36.0001C30.8761 36.0001 34.6957 33.7083 34.6957 30.7827V25.3535L35.5653 24.9767V34.261C35.5653 34.7412 35.9546 35.1305 36.4349 35.1305C36.9151 35.1305 37.3044 34.7412 37.3044 34.261V24.2231L39.3893 23.3197C40.0863 23.0177 40.0864 22.026 39.3893 21.7239ZM26 17.8173L36.8565 22.5218L35.9955 22.8949L26.1078 21.6589C25.6312 21.5997 25.1967 21.9374 25.1371 22.4139C25.0775 22.8904 25.4156 23.3251 25.8921 23.3846L32.8564 24.2552L26 27.2263C19.8664 24.5684 21.1728 25.1345 15.1435 22.5217L26 17.8173ZM32.9566 30.7827C32.9566 31.602 32.2841 32.4456 31.1116 33.0969C28.3191 34.6483 23.689 34.6529 20.8884 33.0969C19.7159 32.4456 19.0434 31.602 19.0434 30.7827V26.1072L25.6542 28.9719C25.8745 29.0673 26.1247 29.0677 26.3458 28.9719L32.9566 26.1072V30.7827Z" fill="white"/>
<defs>
<linearGradient id="paint0_linear" x1="52" y1="52" x2="-41.5797" y2="36.5647" gradientUnits="userSpaceOnUse">
<stop stop-color="#008AE4"/>
<stop offset="1" stop-color="#A6DCFF"/>
</linearGradient>
</defs>
</svg>
