<svg width="52" height="52" viewBox="0 0 52 52" fill="none" xmlns="http://www.w3.org/2000/svg">
    <rect width="52" height="52" rx="10" fill="url(#paint0_linear)"/>
    <path d="M38.2619 19.2032C38.213 19.2015 37.2088 19.1676 35.7348 19.2002V16.178C35.7348 15.7325 35.3544 15.3792 34.9065 15.416C31.9674 15.6613 28.228 16.96 26 19.3288C23.772 16.96 20.0327 15.6613 17.0936 15.416C16.6465 15.3796 16.2652 15.7313 16.2652 16.178V19.2819C15.4277 19.2503 14.6356 19.228 13.7875 19.2031C13.3598 19.1896 13.0001 19.5341 13.0001 19.9675V33.8937C13.0001 34.2961 13.312 34.6296 13.7135 34.6566C16.7554 34.8614 21.8508 34.8844 25.7 36.5262C26.0431 36.6727 26.3511 36.5044 26.3001 36.5262C30.1493 34.8844 35.2437 34.8615 38.2866 34.6566C38.6881 34.6296 39 34.2961 39 33.8937V19.9675C38.9999 19.5555 38.6736 19.2176 38.2619 19.2032ZM34.2054 17.0381V30.1444C32.0002 30.6377 29.2055 31.6903 26.7647 33.9223C26.7647 33.2491 26.7647 21.1419 26.7647 20.7778C28.4379 18.6902 31.6066 17.4319 34.2054 17.0381ZM17.7946 17.0381C20.3934 17.4319 23.5621 18.6902 25.2353 20.7778V33.9223C22.7945 31.6903 19.9998 30.6377 17.7946 30.1444V17.0381ZM14.5295 33.1741V20.755C15.0771 20.7712 15.6628 20.7895 16.2652 20.8125V30.7677C16.2652 31.1356 16.5273 31.4514 16.8889 31.5193C18.635 31.847 20.9056 32.5584 23.0219 34.0901C20.0026 33.413 16.8423 33.3041 14.5295 33.1741ZM37.4705 33.1741C35.1615 33.3039 31.9986 33.4127 28.9781 34.0901C31.0943 32.5584 33.365 31.847 35.1111 31.5193C35.4727 31.4514 35.7347 31.1356 35.7347 30.7677V20.7301C36.4386 20.7144 37.038 20.7142 37.4704 20.7181V33.1741H37.4705Z" fill="white"/>
    <path d="M23.2525 22.5392C22.6602 22.1266 21.6392 21.6201 20.5495 21.4359C20.1332 21.3653 19.7384 21.6461 19.668 22.0625C19.5977 22.4789 19.8782 22.8736 20.2947 22.9439C21.136 23.0861 21.9429 23.4907 22.3783 23.7941C22.7247 24.0354 23.2013 23.9504 23.4428 23.6038C23.6842 23.2572 23.599 22.7806 23.2525 22.5392Z" fill="white"/>
    <path d="M23.176 26.8458C22.631 26.513 21.5652 25.9291 20.5495 25.7574C20.1332 25.6869 19.7384 25.9676 19.668 26.384C19.5977 26.8005 19.8782 27.1951 20.2947 27.2654C21.0859 27.3992 22.0158 27.9292 22.3788 28.151C22.7397 28.3713 23.2101 28.257 23.43 27.897C23.6501 27.5365 23.5364 27.0659 23.176 26.8458Z" fill="white"/>
    <path d="M29.6217 23.7941C30.057 23.4908 30.864 23.0861 31.7053 22.944C32.1217 22.8736 32.4022 22.479 32.3319 22.0626C32.2616 21.6461 31.8668 21.3652 31.4505 21.436C30.3608 21.6201 29.3397 22.1266 28.7474 22.5392C28.4009 22.7806 28.3157 23.2573 28.5571 23.6038C28.7987 23.9505 29.2755 24.0353 29.6217 23.7941Z" fill="white"/>
    <path d="M31.4505 25.7575C30.4348 25.9291 29.3689 26.513 28.824 26.8458C28.4636 27.066 28.3498 27.5366 28.57 27.897C28.7901 28.2574 29.2607 28.3712 29.6212 28.1511C29.9842 27.9293 30.914 27.3992 31.7053 27.2655C32.1217 27.1951 32.4022 26.8006 32.3319 26.3841C32.2615 25.9676 31.8668 25.6867 31.4505 25.7575Z" fill="white"/>
    <defs>
        <linearGradient id="paint0_linear" x1="56.6763" y1="52" x2="-40.9644" y2="36.6683" gradientUnits="userSpaceOnUse">
            <stop stop-color="#FF0944"/>
            <stop offset="1" stop-color="#FFA6A6"/>
        </linearGradient>
    </defs>
</svg>
